STARTFONT 2.1
COMMENT This font was automatically resized by bdfresize-1.5
COMMENT   mag_x = 2/1, mag_y = 2/1, blackness = 4
COMMENT "Forked from CtrlD, http://github.com/bjin/ctrld-font"
COMMENT "forked from Dina, http://www.donationcoder.com/Software/Jibz/Dina/"
FONT -curried-fixed-bold-i-normal--32-200-96-96-c-160-ISO10646-1
SIZE 20 96 96
FONTBOUNDINGBOX 16 32 0 -8
STARTPROPERTIES 18
FACE_NAME "Curried"
FAMILY_NAME "Curried"
WEIGHT_NAME "Bold"
SLANT "I"
PIXEL_SIZE 32
POINT_SIZE 200
RESOLUTION_X 96
RESOLUTION_Y 96
CHARSET_REGISTRY "ISO10646"
CHARSET_ENCODING "1"
CAP_HEIGHT 9
WEIGHT 10
RESOLUTION 132
X_HEIGHT 0
QUAD_WIDTH 8
FONT_ASCENT 24
FONT_DESCENT 8
_GBDFED_INFO "Edited with gbdfed 1.6."
ENDPROPERTIES
CHARS 263
STARTCHAR $10
ENCODING 10
SWIDTH 1200 0
DWIDTH 16 0
BBX 16 32 0 -8
BITMAP
0000
0000
0000
0000
0000
0000
3FFC
3FFC
300C
300C
300C
300C
300C
300C
300C
300C
300C
300C
300C
300C
3FFC
3FFC
0000
0000
0000
0000
0000
0000
0000
0000
0000
0000
ENDCHAR
STARTCHAR $11
ENCODING 11
SWIDTH 1200 0
DWIDTH 16 0
BBX 16 32 0 -8
BITMAP
0000
0000
0000
0000
0000
0000
3FFC
3FFC
300C
300C
300C
300C
300C
300C
300C
300C
300C
300C
300C
300C
3FFC
3FFC
0000
0000
0000
0000
0000
0000
0000
0000
0000
0000
ENDCHAR
STARTCHAR $12
ENCODING 12
SWIDTH 1200 0
DWIDTH 16 0
BBX 16 32 0 -8
BITMAP
0000
0000
0000
0000
0000
0000
3FFC
3FFC
300C
300C
300C
300C
300C
300C
300C
300C
300C
300C
300C
300C
3FFC
3FFC
0000
0000
0000
0000
0000
0000
0000
0000
0000
0000
ENDCHAR
STARTCHAR $13
ENCODING 13
SWIDTH 1200 0
DWIDTH 16 0
BBX 16 32 0 -8
BITMAP
0000
0000
0000
0000
0000
0000
3FFC
3FFC
300C
300C
300C
300C
300C
300C
300C
300C
300C
300C
300C
300C
3FFC
3FFC
0000
0000
0000
0000
0000
0000
0000
0000
0000
0000
ENDCHAR
STARTCHAR $14
ENCODING 14
SWIDTH 1200 0
DWIDTH 16 0
BBX 16 32 0 -8
BITMAP
03C0
03C0
03C0
03C0
03C0
03C0
03C0
03C0
03C0
03C0
03C0
03C0
03C0
03C0
FFC0
FFC0
0000
0000
0000
0000
0000
0000
0000
0000
0000
0000
0000
0000
0000
0000
0000
0000
ENDCHAR
STARTCHAR $15
ENCODING 15
SWIDTH 1200 0
DWIDTH 16 0
BBX 16 32 0 -8
BITMAP
03C0
03C0
03C0
03C0
03C0
03C0
03C0
03C0
03C0
03C0
03C0
03C0
03C0
03C0
03FF
03FF
0000
0000
0000
0000
0000
0000
0000
0000
0000
0000
0000
0000
0000
0000
0000
0000
ENDCHAR
STARTCHAR $16
ENCODING 16
SWIDTH 1200 0
DWIDTH 16 0
BBX 16 32 0 -8
BITMAP
0000
0000
0000
0000
0000
0000
0000
0000
0000
0000
0000
0000
0000
0000
03FF
03FF
03C0
03C0
03C0
03C0
03C0
03C0
03C0
03C0
03C0
03C0
03C0
03C0
03C0
03C0
03C0
03C0
ENDCHAR
STARTCHAR $17
ENCODING 17
SWIDTH 1200 0
DWIDTH 16 0
BBX 16 32 0 -8
BITMAP
0000
0000
0000
0000
0000
0000
0000
0000
0000
0000
0000
0000
0000
0000
FFC0
FFC0
03C0
03C0
03C0
03C0
03C0
03C0
03C0
03C0
03C0
03C0
03C0
03C0
03C0
03C0
03C0
03C0
ENDCHAR
STARTCHAR $18
ENCODING 18
SWIDTH 1200 0
DWIDTH 16 0
BBX 16 32 0 -8
BITMAP
0000
0000
0000
0000
0000
0000
0000
0000
0000
0000
0000
0000
0000
0000
FFFF
FFFF
0000
0000
0000
0000
0000
0000
0000
0000
0000
0000
0000
0000
0000
0000
0000
0000
ENDCHAR
STARTCHAR $19
ENCODING 19
SWIDTH 1200 0
DWIDTH 16 0
BBX 16 32 0 -8
BITMAP
03C0
03C0
03C0
03C0
03C0
03C0
03C0
03C0
03C0
03C0
03C0
03C0
03C0
03C0
03C0
03C0
03C0
03C0
03C0
03C0
03C0
03C0
03C0
03C0
03C0
03C0
03C0
03C0
03C0
03C0
03C0
03C0
ENDCHAR
STARTCHAR $20
ENCODING 20
SWIDTH 1200 0
DWIDTH 16 0
BBX 16 32 0 -8
BITMAP
03C0
03C0
03C0
03C0
03C0
03C0
03C0
03C0
03C0
03C0
03C0
03C0
03C0
03C0
FFC0
FFC0
03C0
03C0
03C0
03C0
03C0
03C0
03C0
03C0
03C0
03C0
03C0
03C0
03C0
03C0
03C0
03C0
ENDCHAR
STARTCHAR $21
ENCODING 21
SWIDTH 1200 0
DWIDTH 16 0
BBX 16 32 0 -8
BITMAP
03C0
03C0
03C0
03C0
03C0
03C0
03C0
03C0
03C0
03C0
03C0
03C0
03C0
03C0
FFFF
FFFF
0000
0000
0000
0000
0000
0000
0000
0000
0000
0000
0000
0000
0000
0000
0000
0000
ENDCHAR
STARTCHAR $22
ENCODING 22
SWIDTH 1200 0
DWIDTH 16 0
BBX 16 32 0 -8
BITMAP
03C0
03C0
03C0
03C0
03C0
03C0
03C0
03C0
03C0
03C0
03C0
03C0
03C0
03C0
03FF
03FF
03C0
03C0
03C0
03C0
03C0
03C0
03C0
03C0
03C0
03C0
03C0
03C0
03C0
03C0
03C0
03C0
ENDCHAR
STARTCHAR $23
ENCODING 23
SWIDTH 1200 0
DWIDTH 16 0
BBX 16 32 0 -8
BITMAP
0000
0000
0000
0000
0000
0000
0000
0000
0000
0000
0000
0000
0000
0000
FFFF
FFFF
03C0
03C0
03C0
03C0
03C0
03C0
03C0
03C0
03C0
03C0
03C0
03C0
03C0
03C0
03C0
03C0
ENDCHAR
STARTCHAR $24
ENCODING 24
SWIDTH 1200 0
DWIDTH 16 0
BBX 16 32 0 -8
BITMAP
03C0
03C0
03C0
03C0
03C0
03C0
03C0
03C0
03C0
03C0
03C0
03C0
03C0
03C0
FFFF
FFFF
03C0
03C0
03C0
03C0
03C0
03C0
03C0
03C0
03C0
03C0
03C0
03C0
03C0
03C0
03C0
03C0
ENDCHAR
STARTCHAR $25
ENCODING 25
SWIDTH 1200 0
DWIDTH 16 0
BBX 16 32 0 -8
BITMAP
CCCC
CCCC
3333
3333
CCCC
CCCC
3333
3333
CCCC
CCCC
3333
3333
CCCC
CCCC
3333
3333
CCCC
CCCC
3333
3333
CCCC
CCCC
3333
3333
CCCC
CCCC
3333
3333
CCCC
CCCC
3333
3333
ENDCHAR
STARTCHAR $26
ENCODING 26
SWIDTH 1200 0
DWIDTH 16 0
BBX 16 32 0 -8
BITMAP
0000
0000
0000
0000
0000
0000
0000
0000
0000
0000
03C0
03C0
03C0
03C0
3FFC
3FFC
0F00
0F00
FFF0
FFF0
3C00
3C00
3C00
3C00
0000
0000
0000
0000
0000
0000
0000
0000
ENDCHAR
STARTCHAR $27
ENCODING 27
SWIDTH 1200 0
DWIDTH 16 0
BBX 16 32 0 -8
BITMAP
0000
0000
0000
0000
0000
0000
0000
0000
0000
0000
00FC
00FC
0FC0
0FC0
FC00
FC00
0FC0
0FC0
00F0
00F0
0000
0000
FFF0
FFF0
0000
0000
0000
0000
0000
0000
0000
0000
ENDCHAR
STARTCHAR $28
ENCODING 28
SWIDTH 1200 0
DWIDTH 16 0
BBX 16 32 0 -8
BITMAP
0000
0000
0000
0000
0000
0000
0000
0000
0000
0000
FFFC
FFFC
3CF0
3CF0
3CF0
3CF0
3CF0
3CF0
F3C0
F3C0
F3C0
F3C0
F3C0
F3C0
0000
0000
0000
0000
0000
0000
0000
0000
ENDCHAR
STARTCHAR $29
ENCODING 29
SWIDTH 1200 0
DWIDTH 16 0
BBX 16 32 0 -8
BITMAP
0000
0000
0000
0000
0000
0000
0000
0000
0000
0000
3C00
3C00
0FC0
0FC0
00FC
00FC
0FC0
0FC0
FC00
FC00
0000
0000
FFF0
FFF0
0000
0000
0000
0000
0000
0000
0000
0000
ENDCHAR
STARTCHAR $30
ENCODING 30
SWIDTH 1200 0
DWIDTH 16 0
BBX 16 32 0 -8
BITMAP
0000
0000
0000
0000
0000
0000
00FC
00FC
03CF
03CF
03C0
03C0
0F00
0F00
3FF0
3FF0
0F00
0F00
3C00
3C00
F000
F000
FFF0
FFF0
0000
0000
0000
0000
0000
0000
0000
0000
ENDCHAR
STARTCHAR $31
ENCODING 31
SWIDTH 1200 0
DWIDTH 16 0
BBX 16 32 0 -8
BITMAP
0000
0000
0000
0000
0000
0000
0000
0000
0000
0000
0000
0000
0000
0000
0000
0000
0FF0
0FF0
0000
0000
0000
0000
0000
0000
0000
0000
0000
0000
0000
0000
0000
0000
ENDCHAR
STARTCHAR $32
ENCODING 32
SWIDTH 1200 0
DWIDTH 16 0
BBX 16 32 0 -8
BITMAP
0000
0000
0000
0000
0000
0000
0000
0000
0000
0000
0000
0000
0000
0000
0000
0000
0000
0000
0000
0000
0000
0000
0000
0000
0000
0000
0000
0000
0000
0000
0000
0000
ENDCHAR
STARTCHAR $33
ENCODING 33
SWIDTH 1200 0
DWIDTH 16 0
BBX 16 32 0 -8
BITMAP
0000
0000
0000
0000
00F0
00F0
00F0
00F0
00F0
00F0
03C0
03C0
03C0
03C0
03C0
03C0
0000
0000
0000
0000
0F00
0F00
0F00
0F00
0000
0000
0000
0000
0000
0000
0000
0000
ENDCHAR
STARTCHAR $34
ENCODING 34
SWIDTH 1200 0
DWIDTH 16 0
BBX 16 32 0 -8
BITMAP
0000
0000
3C3C
3C3C
3C3C
3C3C
3C3C
3C3C
0000
0000
0000
0000
0000
0000
0000
0000
0000
0000
0000
0000
0000
0000
0000
0000
0000
0000
0000
0000
0000
0000
0000
0000
ENDCHAR
STARTCHAR $35
ENCODING 35
SWIDTH 1200 0
DWIDTH 16 0
BBX 16 32 0 -8
BITMAP
0000
0000
0000
0000
0000
0000
0000
0000
0F30
0F30
0F30
0F30
3FFC
3FFC
0F30
0F30
3CC0
3CC0
FFF0
FFF0
3CC0
3CC0
3CC0
3CC0
0000
0000
0000
0000
0000
0000
0000
0000
ENDCHAR
STARTCHAR $36
ENCODING 36
SWIDTH 1200 0
DWIDTH 16 0
BBX 16 32 0 -8
BITMAP
0000
0000
0000
0000
00C0
00C0
03F0
03F0
0FCC
0FCC
3CC0
3CC0
3F00
3F00
0FC0
0FC0
03F0
03F0
0CF0
0CF0
CFC0
CFC0
3F00
3F00
0C00
0C00
0000
0000
0000
0000
0000
0000
ENDCHAR
STARTCHAR $37
ENCODING 37
SWIDTH 1200 0
DWIDTH 16 0
BBX 16 32 0 -8
BITMAP
0000
0000
0000
0000
0F00
0F00
3CC0
3CC0
3CC0
3CC0
0F0F
0F0F
00FF
00FF
0FF0
0FF0
FF00
FF00
F0F0
F0F0
03CC
03CC
03CC
03CC
00F0
00F0
0000
0000
0000
0000
0000
0000
ENDCHAR
STARTCHAR $38
ENCODING 38
SWIDTH 1200 0
DWIDTH 16 0
BBX 16 32 0 -8
BITMAP
0000
0000
0000
0000
00F0
00F0
033C
033C
0F3C
0F3C
0FF0
0FF0
0F00
0F00
33CC
33CC
F0F0
F0F0
F3C0
F3C0
F3C0
F3C0
3F3C
3F3C
0000
0000
0000
0000
0000
0000
0000
0000
ENDCHAR
STARTCHAR $39
ENCODING 39
SWIDTH 1200 0
DWIDTH 16 0
BBX 16 32 0 -8
BITMAP
0000
0000
03C0
03C0
03C0
03C0
03C0
03C0
0000
0000
0000
0000
0000
0000
0000
0000
0000
0000
0000
0000
0000
0000
0000
0000
0000
0000
0000
0000
0000
0000
0000
0000
ENDCHAR
STARTCHAR $40
ENCODING 40
SWIDTH 1200 0
DWIDTH 16 0
BBX 16 32 0 -8
BITMAP
0000
0000
003C
003C
00F0
00F0
03C0
03C0
0F00
0F00
0F00
0F00
3C00
3C00
3C00
3C00
3C00
3C00
3C00
3C00
3C00
3C00
0F00
0F00
0F00
0F00
03C0
03C0
0000
0000
0000
0000
ENDCHAR
STARTCHAR $41
ENCODING 41
SWIDTH 1200 0
DWIDTH 16 0
BBX 16 32 0 -8
BITMAP
0000
0000
03C0
03C0
00F0
00F0
00F0
00F0
003C
003C
003C
003C
003C
003C
003C
003C
003C
003C
00F0
00F0
00F0
00F0
03C0
03C0
0F00
0F00
3C00
3C00
0000
0000
0000
0000
ENDCHAR
STARTCHAR $42
ENCODING 42
SWIDTH 1200 0
DWIDTH 16 0
BBX 16 32 0 -8
BITMAP
0000
0000
0000
0000
0000
0000
0000
0000
0000
0000
3CF0
3CF0
0FC0
0FC0
FFFC
FFFC
3F00
3F00
F3C0
F3C0
0000
0000
0000
0000
0000
0000
0000
0000
0000
0000
0000
0000
ENDCHAR
STARTCHAR $43
ENCODING 43
SWIDTH 1200 0
DWIDTH 16 0
BBX 16 32 0 -8
BITMAP
0000
0000
0000
0000
0000
0000
0000
0000
0000
0000
03C0
03C0
03C0
03C0
FFFC
FFFC
0F00
0F00
0F00
0F00
0000
0000
0000
0000
0000
0000
0000
0000
0000
0000
0000
0000
ENDCHAR
STARTCHAR $44
ENCODING 44
SWIDTH 1200 0
DWIDTH 16 0
BBX 16 32 0 -8
BITMAP
0000
0000
0000
0000
0000
0000
0000
0000
0000
0000
0000
0000
0000
0000
0000
0000
0000
0000
0000
0000
0F00
0F00
0F00
0F00
3C00
3C00
F000
F000
0000
0000
0000
0000
ENDCHAR
STARTCHAR $45
ENCODING 45
SWIDTH 1200 0
DWIDTH 16 0
BBX 16 32 0 -8
BITMAP
0000
0000
0000
0000
0000
0000
0000
0000
0000
0000
0000
0000
0000
0000
3FFC
3FFC
0000
0000
0000
0000
0000
0000
0000
0000
0000
0000
0000
0000
0000
0000
0000
0000
ENDCHAR
STARTCHAR $46
ENCODING 46
SWIDTH 1200 0
DWIDTH 16 0
BBX 16 32 0 -8
BITMAP
0000
0000
0000
0000
0000
0000
0000
0000
0000
0000
0000
0000
0000
0000
0000
0000
0000
0000
0000
0000
0F00
0F00
0F00
0F00
0000
0000
0000
0000
0000
0000
0000
0000
ENDCHAR
STARTCHAR $47
ENCODING 47
SWIDTH 1200 0
DWIDTH 16 0
BBX 16 32 0 -8
BITMAP
0000
0000
0000
0000
000F
000F
000F
000F
003C
003C
00F0
00F0
03C0
03C0
03C0
03C0
0F00
0F00
3C00
3C00
F000
F000
F000
F000
0000
0000
0000
0000
0000
0000
0000
0000
ENDCHAR
STARTCHAR $48
ENCODING 48
SWIDTH 1200 0
DWIDTH 16 0
BBX 16 32 0 -8
BITMAP
0000
0000
0000
0000
0000
0000
03FC
03FC
0F0F
0F0F
0F0F
0F0F
3CFC
3CFC
3FFC
3FFC
3F3C
3F3C
F0F0
F0F0
F0F0
F0F0
3FC0
3FC0
0000
0000
0000
0000
0000
0000
0000
0000
ENDCHAR
STARTCHAR $49
ENCODING 49
SWIDTH 1200 0
DWIDTH 16 0
BBX 16 32 0 -8
BITMAP
0000
0000
0000
0000
0000
0000
003C
003C
00FC
00FC
033C
033C
0CF0
0CF0
00F0
00F0
00F0
00F0
03C0
03C0
03C0
03C0
3FFC
3FFC
0000
0000
0000
0000
0000
0000
0000
0000
ENDCHAR
STARTCHAR $50
ENCODING 50
SWIDTH 1200 0
DWIDTH 16 0
BBX 16 32 0 -8
BITMAP
0000
0000
0000
0000
0000
0000
03FC
03FC
0F0F
0F0F
000F
000F
003C
003C
00F0
00F0
03C0
03C0
0F00
0F00
3C00
3C00
FFF0
FFF0
0000
0000
0000
0000
0000
0000
0000
0000
ENDCHAR
STARTCHAR $51
ENCODING 51
SWIDTH 1200 0
DWIDTH 16 0
BBX 16 32 0 -8
BITMAP
0000
0000
0000
0000
0000
0000
03FC
03FC
0F0F
0F0F
000F
000F
003C
003C
03F0
03F0
003C
003C
003C
003C
F0F0
F0F0
3FC0
3FC0
0000
0000
0000
0000
0000
0000
0000
0000
ENDCHAR
STARTCHAR $52
ENCODING 52
SWIDTH 1200 0
DWIDTH 16 0
BBX 16 32 0 -8
BITMAP
0000
0000
0000
0000
0000
0000
003F
003F
00FF
00FF
03CF
03CF
0F3C
0F3C
3C3C
3C3C
3FFF
3FFF
00F0
00F0
00F0
00F0
00F0
00F0
0000
0000
0000
0000
0000
0000
0000
0000
ENDCHAR
STARTCHAR $53
ENCODING 53
SWIDTH 1200 0
DWIDTH 16 0
BBX 16 32 0 -8
BITMAP
0000
0000
0000
0000
0000
0000
0FFF
0FFF
0F00
0F00
0F00
0F00
3C00
3C00
3FF0
3FF0
003C
003C
003C
003C
F0F0
F0F0
3FC0
3FC0
0000
0000
0000
0000
0000
0000
0000
0000
ENDCHAR
STARTCHAR $54
ENCODING 54
SWIDTH 1200 0
DWIDTH 16 0
BBX 16 32 0 -8
BITMAP
0000
0000
0000
0000
0000
0000
00FC
00FC
03C0
03C0
0F00
0F00
3C00
3C00
3FF0
3FF0
F03C
F03C
F03C
F03C
F0F0
F0F0
3FC0
3FC0
0000
0000
0000
0000
0000
0000
0000
0000
ENDCHAR
STARTCHAR $55
ENCODING 55
SWIDTH 1200 0
DWIDTH 16 0
BBX 16 32 0 -8
BITMAP
0000
0000
0000
0000
0000
0000
0FFF
0FFF
000F
000F
003C
003C
00F0
00F0
03C0
03C0
0F00
0F00
0F00
0F00
3C00
3C00
3C00
3C00
0000
0000
0000
0000
0000
0000
0000
0000
ENDCHAR
STARTCHAR $56
ENCODING 56
SWIDTH 1200 0
DWIDTH 16 0
BBX 16 32 0 -8
BITMAP
0000
0000
0000
0000
0000
0000
03FC
03FC
0F0F
0F0F
3C0F
3C0F
3C3C
3C3C
0FF0
0FF0
3C3C
3C3C
F03C
F03C
F0F0
F0F0
3FC0
3FC0
0000
0000
0000
0000
0000
0000
0000
0000
ENDCHAR
STARTCHAR $57
ENCODING 57
SWIDTH 1200 0
DWIDTH 16 0
BBX 16 32 0 -8
BITMAP
0000
0000
0000
0000
0000
0000
03FC
03FC
0F0F
0F0F
3C0F
3C0F
3C0F
3C0F
0FFC
0FFC
003C
003C
00F0
00F0
03C0
03C0
3F00
3F00
0000
0000
0000
0000
0000
0000
0000
0000
ENDCHAR
STARTCHAR $58
ENCODING 58
SWIDTH 1200 0
DWIDTH 16 0
BBX 16 32 0 -8
BITMAP
0000
0000
0000
0000
0000
0000
0000
0000
0000
0000
03C0
03C0
03C0
03C0
0000
0000
0000
0000
0000
0000
0F00
0F00
0F00
0F00
0000
0000
0000
0000
0000
0000
0000
0000
ENDCHAR
STARTCHAR $59
ENCODING 59
SWIDTH 1200 0
DWIDTH 16 0
BBX 16 32 0 -8
BITMAP
0000
0000
0000
0000
0000
0000
0000
0000
0000
0000
03C0
03C0
03C0
03C0
0000
0000
0000
0000
0000
0000
0F00
0F00
0F00
0F00
3C00
3C00
F000
F000
0000
0000
0000
0000
ENDCHAR
STARTCHAR $60
ENCODING 60
SWIDTH 1200 0
DWIDTH 16 0
BBX 16 32 0 -8
BITMAP
0000
0000
0000
0000
0000
0000
003C
003C
00F0
00F0
03C0
03C0
0F00
0F00
3C00
3C00
0F00
0F00
0F00
0F00
03C0
03C0
03C0
03C0
0000
0000
0000
0000
0000
0000
0000
0000
ENDCHAR
STARTCHAR $61
ENCODING 61
SWIDTH 1200 0
DWIDTH 16 0
BBX 16 32 0 -8
BITMAP
0000
0000
0000
0000
0000
0000
0000
0000
0000
0000
0000
0000
3FFC
3FFC
0000
0000
FFF0
FFF0
0000
0000
0000
0000
0000
0000
0000
0000
0000
0000
0000
0000
0000
0000
ENDCHAR
STARTCHAR $62
ENCODING 62
SWIDTH 1200 0
DWIDTH 16 0
BBX 16 32 0 -8
BITMAP
0000
0000
0000
0000
0000
0000
03C0
03C0
03C0
03C0
00F0
00F0
00F0
00F0
003C
003C
00F0
00F0
03C0
03C0
0F00
0F00
3C00
3C00
0000
0000
0000
0000
0000
0000
0000
0000
ENDCHAR
STARTCHAR $63
ENCODING 63
SWIDTH 1200 0
DWIDTH 16 0
BBX 16 32 0 -8
BITMAP
0000
0000
0000
0000
03FC
03FC
0F0F
0F0F
000F
000F
003C
003C
00F0
00F0
03C0
03C0
03C0
03C0
0000
0000
0F00
0F00
0F00
0F00
0000
0000
0000
0000
0000
0000
0000
0000
ENDCHAR
STARTCHAR $64
ENCODING 64
SWIDTH 1200 0
DWIDTH 16 0
BBX 16 32 0 -8
BITMAP
0000
0000
0000
0000
0000
0000
03FC
03FC
0F0F
0F0F
0F0F
0F0F
3C3C
3C3C
3CFC
3CFC
3CF0
3CF0
F0F0
F0F0
F000
F000
3FF0
3FF0
0000
0000
0000
0000
0000
0000
0000
0000
ENDCHAR
STARTCHAR $65
ENCODING 65
SWIDTH 1200 0
DWIDTH 16 0
BBX 16 32 0 -8
BITMAP
0000
0000
0000
0000
0000
0000
003C
003C
00FC
00FC
03FC
03FC
0F3C
0F3C
0F3C
0F3C
3FFC
3FFC
3C3C
3C3C
F03C
F03C
F03C
F03C
0000
0000
0000
0000
0000
0000
0000
0000
ENDCHAR
STARTCHAR $66
ENCODING 66
SWIDTH 1200 0
DWIDTH 16 0
BBX 16 32 0 -8
BITMAP
0000
0000
0000
0000
0000
0000
0FFC
0FFC
0F0F
0F0F
0F0F
0F0F
3C3C
3C3C
3FF0
3FF0
3C3C
3C3C
F03C
F03C
F0F0
F0F0
FFC0
FFC0
0000
0000
0000
0000
0000
0000
0000
0000
ENDCHAR
STARTCHAR $67
ENCODING 67
SWIDTH 1200 0
DWIDTH 16 0
BBX 16 32 0 -8
BITMAP
0000
0000
0000
0000
0000
0000
03FC
03FC
0F0F
0F0F
0F00
0F00
3C00
3C00
3C00
3C00
3C00
3C00
F000
F000
F0F0
F0F0
3FC0
3FC0
0000
0000
0000
0000
0000
0000
0000
0000
ENDCHAR
STARTCHAR $68
ENCODING 68
SWIDTH 1200 0
DWIDTH 16 0
BBX 16 32 0 -8
BITMAP
0000
0000
0000
0000
0000
0000
0FF0
0FF0
0F3C
0F3C
0F0F
0F0F
3C0F
3C0F
3C3C
3C3C
3C3C
3C3C
F0F0
F0F0
F3C0
F3C0
FF00
FF00
0000
0000
0000
0000
0000
0000
0000
0000
ENDCHAR
STARTCHAR $69
ENCODING 69
SWIDTH 1200 0
DWIDTH 16 0
BBX 16 32 0 -8
BITMAP
0000
0000
0000
0000
0000
0000
0FFF
0FFF
0F00
0F00
0F00
0F00
3C00
3C00
3FF0
3FF0
3C00
3C00
F000
F000
F000
F000
FFF0
FFF0
0000
0000
0000
0000
0000
0000
0000
0000
ENDCHAR
STARTCHAR $70
ENCODING 70
SWIDTH 1200 0
DWIDTH 16 0
BBX 16 32 0 -8
BITMAP
0000
0000
0000
0000
0000
0000
0FFF
0FFF
0F00
0F00
0F00
0F00
3C00
3C00
3FF0
3FF0
3C00
3C00
F000
F000
F000
F000
F000
F000
0000
0000
0000
0000
0000
0000
0000
0000
ENDCHAR
STARTCHAR $71
ENCODING 71
SWIDTH 1200 0
DWIDTH 16 0
BBX 16 32 0 -8
BITMAP
0000
0000
0000
0000
0000
0000
03FC
03FC
0F0F
0F0F
0F00
0F00
3C00
3C00
3CFC
3CFC
3C3C
3C3C
F0F0
F0F0
F0F0
F0F0
3FC0
3FC0
0000
0000
0000
0000
0000
0000
0000
0000
ENDCHAR
STARTCHAR $72
ENCODING 72
SWIDTH 1200 0
DWIDTH 16 0
BBX 16 32 0 -8
BITMAP
0000
0000
0000
0000
0000
0000
0F0F
0F0F
0F0F
0F0F
0F0F
0F0F
3C3C
3C3C
3FFC
3FFC
3C3C
3C3C
F0F0
F0F0
F0F0
F0F0
F0F0
F0F0
0000
0000
0000
0000
0000
0000
0000
0000
ENDCHAR
STARTCHAR $73
ENCODING 73
SWIDTH 1200 0
DWIDTH 16 0
BBX 16 32 0 -8
BITMAP
0000
0000
0000
0000
0000
0000
0FFF
0FFF
00F0
00F0
00F0
00F0
03C0
03C0
03C0
03C0
03C0
03C0
0F00
0F00
0F00
0F00
FFF0
FFF0
0000
0000
0000
0000
0000
0000
0000
0000
ENDCHAR
STARTCHAR $74
ENCODING 74
SWIDTH 1200 0
DWIDTH 16 0
BBX 16 32 0 -8
BITMAP
0000
0000
0000
0000
0000
0000
03FF
03FF
000F
000F
000F
000F
003C
003C
003C
003C
003C
003C
F0F0
F0F0
F0F0
F0F0
3FC0
3FC0
0000
0000
0000
0000
0000
0000
0000
0000
ENDCHAR
STARTCHAR $75
ENCODING 75
SWIDTH 1200 0
DWIDTH 16 0
BBX 16 32 0 -8
BITMAP
0000
0000
0000
0000
0000
0000
0F0F
0F0F
0F3C
0F3C
0F30
0F30
3CF0
3CF0
3FC0
3FC0
3FC0
3FC0
F3C0
F3C0
F0F0
F0F0
F0F0
F0F0
0000
0000
0000
0000
0000
0000
0000
0000
ENDCHAR
STARTCHAR $76
ENCODING 76
SWIDTH 1200 0
DWIDTH 16 0
BBX 16 32 0 -8
BITMAP
0000
0000
0000
0000
0000
0000
0F00
0F00
0F00
0F00
0F00
0F00
3C00
3C00
3C00
3C00
3C00
3C00
F000
F000
F000
F000
FFF0
FFF0
0000
0000
0000
0000
0000
0000
0000
0000
ENDCHAR
STARTCHAR $77
ENCODING 77
SWIDTH 1200 0
DWIDTH 16 0
BBX 16 32 0 -8
BITMAP
0000
0000
0000
0000
0000
0000
0C0F
0C0F
0F3F
0F3F
3FFF
3FFF
3CCF
3CCF
3CCC
3CCC
3C3C
3C3C
F03C
F03C
F0F0
F0F0
F0F0
F0F0
0000
0000
0000
0000
0000
0000
0000
0000
ENDCHAR
STARTCHAR $78
ENCODING 78
SWIDTH 1200 0
DWIDTH 16 0
BBX 16 32 0 -8
BITMAP
0000
0000
0000
0000
0000
0000
0F0F
0F0F
0FCF
0FCF
0FFF
0FFF
3CFC
3CFC
3C3C
3C3C
3C3C
3C3C
F0F0
F0F0
F0F0
F0F0
F0F0
F0F0
0000
0000
0000
0000
0000
0000
0000
0000
ENDCHAR
STARTCHAR $79
ENCODING 79
SWIDTH 1200 0
DWIDTH 16 0
BBX 16 32 0 -8
BITMAP
0000
0000
0000
0000
0000
0000
03FC
03FC
0F0F
0F0F
0F0F
0F0F
3C3C
3C3C
3C3C
3C3C
3C3C
3C3C
F0F0
F0F0
F0F0
F0F0
3FC0
3FC0
0000
0000
0000
0000
0000
0000
0000
0000
ENDCHAR
STARTCHAR $80
ENCODING 80
SWIDTH 1200 0
DWIDTH 16 0
BBX 16 32 0 -8
BITMAP
0000
0000
0000
0000
0000
0000
0FFC
0FFC
0F0F
0F0F
0F0F
0F0F
3C3C
3C3C
3FF0
3FF0
3C00
3C00
F000
F000
F000
F000
F000
F000
0000
0000
0000
0000
0000
0000
0000
0000
ENDCHAR
STARTCHAR $81
ENCODING 81
SWIDTH 1200 0
DWIDTH 16 0
BBX 16 32 0 -8
BITMAP
0000
0000
0000
0000
0000
0000
03FC
03FC
0F0F
0F0F
0F0F
0F0F
3C0F
3C0F
3C3C
3C3C
3C3C
3C3C
F0F0
F0F0
F3F0
F3F0
3F3C
3F3C
003C
003C
0000
0000
0000
0000
0000
0000
ENDCHAR
STARTCHAR $82
ENCODING 82
SWIDTH 1200 0
DWIDTH 16 0
BBX 16 32 0 -8
BITMAP
0000
0000
0000
0000
0000
0000
0FFC
0FFC
0F0F
0F0F
0F0F
0F0F
3C3C
3C3C
3FF0
3FF0
3FC0
3FC0
F0F0
F0F0
F0F0
F0F0
F0F0
F0F0
0000
0000
0000
0000
0000
0000
0000
0000
ENDCHAR
STARTCHAR $83
ENCODING 83
SWIDTH 1200 0
DWIDTH 16 0
BBX 16 32 0 -8
BITMAP
0000
0000
0000
0000
0000
0000
03FC
03FC
0F0F
0F0F
3C00
3C00
3C00
3C00
0FF0
0FF0
003C
003C
003C
003C
F0F0
F0F0
3FC0
3FC0
0000
0000
0000
0000
0000
0000
0000
0000
ENDCHAR
STARTCHAR $84
ENCODING 84
SWIDTH 1200 0
DWIDTH 16 0
BBX 16 32 0 -8
BITMAP
0000
0000
0000
0000
0000
0000
3FFC
3FFC
03C0
03C0
03C0
03C0
0F00
0F00
0F00
0F00
0F00
0F00
3C00
3C00
3C00
3C00
3C00
3C00
0000
0000
0000
0000
0000
0000
0000
0000
ENDCHAR
STARTCHAR $85
ENCODING 85
SWIDTH 1200 0
DWIDTH 16 0
BBX 16 32 0 -8
BITMAP
0000
0000
0000
0000
0000
0000
0F0F
0F0F
0F0F
0F0F
3C0F
3C0F
3C3C
3C3C
3C3C
3C3C
F03C
F03C
F0F0
F0F0
F0F0
F0F0
3FC0
3FC0
0000
0000
0000
0000
0000
0000
0000
0000
ENDCHAR
STARTCHAR $86
ENCODING 86
SWIDTH 1200 0
DWIDTH 16 0
BBX 16 32 0 -8
BITMAP
0000
0000
0000
0000
0000
0000
3C0F
3C0F
3C3C
3C3C
3C3C
3C3C
3CF0
3CF0
3CF0
3CF0
3FC0
3FC0
3FC0
3FC0
3F00
3F00
3C00
3C00
0000
0000
0000
0000
0000
0000
0000
0000
ENDCHAR
STARTCHAR $87
ENCODING 87
SWIDTH 1200 0
DWIDTH 16 0
BBX 16 32 0 -8
BITMAP
0000
0000
0000
0000
0000
0000
3C0F
3C0F
3C0F
3C0F
3C0F
3C0F
333C
333C
F33C
F33C
F33C
F33C
FFF0
FFF0
FFF0
FFF0
F0C0
F0C0
0000
0000
0000
0000
0000
0000
0000
0000
ENDCHAR
STARTCHAR $88
ENCODING 88
SWIDTH 1200 0
DWIDTH 16 0
BBX 16 32 0 -8
BITMAP
0000
0000
0000
0000
0000
0000
0F0F
0F0F
0F0F
0F0F
0F3C
0F3C
0FF0
0FF0
03C0
03C0
0FF0
0FF0
3CF0
3CF0
F0F0
F0F0
F0F0
F0F0
0000
0000
0000
0000
0000
0000
0000
0000
ENDCHAR
STARTCHAR $89
ENCODING 89
SWIDTH 1200 0
DWIDTH 16 0
BBX 16 32 0 -8
BITMAP
0000
0000
0000
0000
0000
0000
3C0F
3C0F
3C0F
3C0F
3C3C
3C3C
0FF0
0FF0
0FC0
0FC0
0F00
0F00
0F00
0F00
3C00
3C00
3C00
3C00
0000
0000
0000
0000
0000
0000
0000
0000
ENDCHAR
STARTCHAR $90
ENCODING 90
SWIDTH 1200 0
DWIDTH 16 0
BBX 16 32 0 -8
BITMAP
0000
0000
0000
0000
0000
0000
0FFF
0FFF
000F
000F
003C
003C
00F0
00F0
03C0
03C0
0F00
0F00
3C00
3C00
F000
F000
FFF0
FFF0
0000
0000
0000
0000
0000
0000
0000
0000
ENDCHAR
STARTCHAR $91
ENCODING 91
SWIDTH 1200 0
DWIDTH 16 0
BBX 16 32 0 -8
BITMAP
0000
0000
03FC
03FC
03C0
03C0
03C0
03C0
03C0
03C0
0F00
0F00
0F00
0F00
0F00
0F00
0F00
0F00
0F00
0F00
3C00
3C00
3C00
3C00
3C00
3C00
3FC0
3FC0
0000
0000
0000
0000
ENDCHAR
STARTCHAR $92
ENCODING 92
SWIDTH 1200 0
DWIDTH 16 0
BBX 16 32 0 -8
BITMAP
0000
0000
3C00
3C00
3C00
3C00
0F00
0F00
0F00
0F00
0F00
0F00
03C0
03C0
03C0
03C0
00F0
00F0
00F0
00F0
00F0
00F0
003C
003C
003C
003C
0000
0000
0000
0000
0000
0000
ENDCHAR
STARTCHAR $93
ENCODING 93
SWIDTH 1200 0
DWIDTH 16 0
BBX 16 32 0 -8
BITMAP
0000
0000
0FF0
0FF0
00F0
00F0
00F0
00F0
00F0
00F0
03C0
03C0
03C0
03C0
03C0
03C0
03C0
03C0
03C0
03C0
0F00
0F00
0F00
0F00
0F00
0F00
FF00
FF00
0000
0000
0000
0000
ENDCHAR
STARTCHAR $94
ENCODING 94
SWIDTH 1200 0
DWIDTH 16 0
BBX 16 32 0 -8
BITMAP
0000
0000
0000
0000
00F0
00F0
03F0
03F0
0F3C
0F3C
3C3C
3C3C
3C3C
3C3C
0000
0000
0000
0000
0000
0000
0000
0000
0000
0000
0000
0000
0000
0000
0000
0000
0000
0000
ENDCHAR
STARTCHAR $95
ENCODING 95
SWIDTH 1200 0
DWIDTH 16 0
BBX 16 32 0 -8
BITMAP
0000
0000
0000
0000
0000
0000
0000
0000
0000
0000
0000
0000
0000
0000
0000
0000
0000
0000
0000
0000
0000
0000
0000
0000
FFFF
FFFF
0000
0000
0000
0000
0000
0000
ENDCHAR
STARTCHAR $96
ENCODING 96
SWIDTH 1200 0
DWIDTH 16 0
BBX 16 32 0 -8
BITMAP
0000
0000
0FC0
0FC0
03C0
03C0
00F0
00F0
0000
0000
0000
0000
0000
0000
0000
0000
0000
0000
0000
0000
0000
0000
0000
0000
0000
0000
0000
0000
0000
0000
0000
0000
ENDCHAR
STARTCHAR $97
ENCODING 97
SWIDTH 1200 0
DWIDTH 16 0
BBX 16 32 0 -8
BITMAP
0000
0000
0000
0000
0000
0000
0000
0000
0000
0000
0FF0
0FF0
003C
003C
003C
003C
3FF0
3FF0
F0F0
F0F0
F0F0
F0F0
3FF0
3FF0
0000
0000
0000
0000
0000
0000
0000
0000
ENDCHAR
STARTCHAR $98
ENCODING 98
SWIDTH 1200 0
DWIDTH 16 0
BBX 16 32 0 -8
BITMAP
0000
0000
0000
0000
0F00
0F00
0F00
0F00
0F00
0F00
0FF0
0FF0
3C3C
3C3C
3C3C
3C3C
3C3C
3C3C
F0F0
F0F0
F0F0
F0F0
FFC0
FFC0
0000
0000
0000
0000
0000
0000
0000
0000
ENDCHAR
STARTCHAR $99
ENCODING 99
SWIDTH 1200 0
DWIDTH 16 0
BBX 16 32 0 -8
BITMAP
0000
0000
0000
0000
0000
0000
0000
0000
0000
0000
0FF0
0FF0
3C3C
3C3C
3C00
3C00
F000
F000
F000
F000
F0F0
F0F0
3FC0
3FC0
0000
0000
0000
0000
0000
0000
0000
0000
ENDCHAR
STARTCHAR $100
ENCODING 100
SWIDTH 1200 0
DWIDTH 16 0
BBX 16 32 0 -8
BITMAP
0000
0000
0000
0000
000F
000F
000F
000F
000F
000F
0FFC
0FFC
3C3C
3C3C
3C3C
3C3C
F03C
F03C
F0F0
F0F0
F0F0
F0F0
3FF0
3FF0
0000
0000
0000
0000
0000
0000
0000
0000
ENDCHAR
STARTCHAR $101
ENCODING 101
SWIDTH 1200 0
DWIDTH 16 0
BBX 16 32 0 -8
BITMAP
0000
0000
0000
0000
0000
0000
0000
0000
0000
0000
0FF0
0FF0
3C3C
3C3C
3C3C
3C3C
FFFC
FFFC
F000
F000
F0F0
F0F0
3FC0
3FC0
0000
0000
0000
0000
0000
0000
0000
0000
ENDCHAR
STARTCHAR $102
ENCODING 102
SWIDTH 1200 0
DWIDTH 16 0
BBX 16 32 0 -8
BITMAP
0000
0000
0000
0000
00FC
00FC
03C0
03C0
03C0
03C0
3FF0
3FF0
0F00
0F00
0F00
0F00
0F00
0F00
3C00
3C00
3C00
3C00
3C00
3C00
0000
0000
0000
0000
0000
0000
0000
0000
ENDCHAR
STARTCHAR $103
ENCODING 103
SWIDTH 1200 0
DWIDTH 16 0
BBX 16 32 0 -8
BITMAP
0000
0000
0000
0000
0000
0000
0000
0000
0000
0000
0FFC
0FFC
3C3C
3C3C
3C3C
3C3C
F03C
F03C
F0F0
F0F0
F0F0
F0F0
3FF0
3FF0
00F0
00F0
03C0
03C0
03C0
03C0
FF00
FF00
ENDCHAR
STARTCHAR $104
ENCODING 104
SWIDTH 1200 0
DWIDTH 16 0
BBX 16 32 0 -8
BITMAP
0000
0000
0000
0000
0F00
0F00
0F00
0F00
0F00
0F00
3FF0
3FF0
3C3C
3C3C
3C3C
3C3C
3C3C
3C3C
F0F0
F0F0
F0F0
F0F0
F0F0
F0F0
0000
0000
0000
0000
0000
0000
0000
0000
ENDCHAR
STARTCHAR $105
ENCODING 105
SWIDTH 1200 0
DWIDTH 16 0
BBX 16 32 0 -8
BITMAP
0000
0000
00F0
00F0
00F0
00F0
0000
0000
0000
0000
0FC0
0FC0
03C0
03C0
03C0
03C0
0F00
0F00
0F00
0F00
0F00
0F00
3FC0
3FC0
0000
0000
0000
0000
0000
0000
0000
0000
ENDCHAR
STARTCHAR $106
ENCODING 106
SWIDTH 1200 0
DWIDTH 16 0
BBX 16 32 0 -8
BITMAP
0000
0000
003C
003C
003C
003C
0000
0000
0000
0000
03F0
03F0
00F0
00F0
00F0
00F0
00F0
00F0
00F0
00F0
03C0
03C0
03C0
03C0
03C0
03C0
FF00
FF00
0000
0000
0000
0000
ENDCHAR
STARTCHAR $107
ENCODING 107
SWIDTH 1200 0
DWIDTH 16 0
BBX 16 32 0 -8
BITMAP
0000
0000
0000
0000
0F00
0F00
0F00
0F00
0F00
0F00
3C3C
3C3C
3CF0
3CF0
3FC0
3FC0
3F00
3F00
F3C0
F3C0
F3C0
F3C0
F0F0
F0F0
0000
0000
0000
0000
0000
0000
0000
0000
ENDCHAR
STARTCHAR $108
ENCODING 108
SWIDTH 1200 0
DWIDTH 16 0
BBX 16 32 0 -8
BITMAP
0000
0000
0000
0000
03F0
03F0
00F0
00F0
00F0
00F0
03C0
03C0
03C0
03C0
03C0
03C0
03C0
03C0
0F00
0F00
0F00
0F00
0FC0
0FC0
0000
0000
0000
0000
0000
0000
0000
0000
ENDCHAR
STARTCHAR $109
ENCODING 109
SWIDTH 1200 0
DWIDTH 16 0
BBX 16 32 0 -8
BITMAP
0000
0000
0000
0000
0000
0000
0000
0000
0000
0000
3C30
3C30
3FFC
3FFC
3FFC
3FFC
F33C
F33C
F33C
F33C
F0F0
F0F0
F0F0
F0F0
0000
0000
0000
0000
0000
0000
0000
0000
ENDCHAR
STARTCHAR $110
ENCODING 110
SWIDTH 1200 0
DWIDTH 16 0
BBX 16 32 0 -8
BITMAP
0000
0000
0000
0000
0000
0000
0000
0000
0000
0000
3FF0
3FF0
3C3C
3C3C
3C3C
3C3C
3C3C
3C3C
F0F0
F0F0
F0F0
F0F0
F0F0
F0F0
0000
0000
0000
0000
0000
0000
0000
0000
ENDCHAR
STARTCHAR $111
ENCODING 111
SWIDTH 1200 0
DWIDTH 16 0
BBX 16 32 0 -8
BITMAP
0000
0000
0000
0000
0000
0000
0000
0000
0000
0000
0FF0
0FF0
3C3C
3C3C
3C3C
3C3C
F03C
F03C
F0F0
F0F0
F0F0
F0F0
3FC0
3FC0
0000
0000
0000
0000
0000
0000
0000
0000
ENDCHAR
STARTCHAR $112
ENCODING 112
SWIDTH 1200 0
DWIDTH 16 0
BBX 16 32 0 -8
BITMAP
0000
0000
0000
0000
0000
0000
0000
0000
0000
0000
0FF0
0FF0
0F3C
0F3C
0F3C
0F3C
0F3C
0F3C
3CF0
3CF0
3CF0
3CF0
3FC0
3FC0
3C00
3C00
F000
F000
F000
F000
F000
F000
ENDCHAR
STARTCHAR $113
ENCODING 113
SWIDTH 1200 0
DWIDTH 16 0
BBX 16 32 0 -8
BITMAP
0000
0000
0000
0000
0000
0000
0000
0000
0000
0000
0FFC
0FFC
3C3C
3C3C
3C3C
3C3C
F03C
F03C
F0F0
F0F0
F0F0
F0F0
3FF0
3FF0
00F0
00F0
03C0
03C0
03C0
03C0
03C0
03C0
ENDCHAR
STARTCHAR $114
ENCODING 114
SWIDTH 1200 0
DWIDTH 16 0
BBX 16 32 0 -8
BITMAP
0000
0000
0000
0000
0000
0000
0000
0000
0000
0000
3CF0
3CF0
3F3C
3F3C
3C00
3C00
3C00
3C00
F000
F000
F000
F000
F000
F000
0000
0000
0000
0000
0000
0000
0000
0000
ENDCHAR
STARTCHAR $115
ENCODING 115
SWIDTH 1200 0
DWIDTH 16 0
BBX 16 32 0 -8
BITMAP
0000
0000
0000
0000
0000
0000
0000
0000
0000
0000
0FF0
0FF0
3C3C
3C3C
3C00
3C00
0FC0
0FC0
00F0
00F0
F0F0
F0F0
3FC0
3FC0
0000
0000
0000
0000
0000
0000
0000
0000
ENDCHAR
STARTCHAR $116
ENCODING 116
SWIDTH 1200 0
DWIDTH 16 0
BBX 16 32 0 -8
BITMAP
0000
0000
0000
0000
03C0
03C0
03C0
03C0
03C0
03C0
3FF0
3FF0
0F00
0F00
0F00
0F00
3C00
3C00
3C00
3C00
3C00
3C00
0FF0
0FF0
0000
0000
0000
0000
0000
0000
0000
0000
ENDCHAR
STARTCHAR $117
ENCODING 117
SWIDTH 1200 0
DWIDTH 16 0
BBX 16 32 0 -8
BITMAP
0000
0000
0000
0000
0000
0000
0000
0000
0000
0000
3C3C
3C3C
3C3C
3C3C
3C3C
3C3C
F0F0
F0F0
F0F0
F0F0
F0F0
F0F0
3FF0
3FF0
0000
0000
0000
0000
0000
0000
0000
0000
ENDCHAR
STARTCHAR $118
ENCODING 118
SWIDTH 1200 0
DWIDTH 16 0
BBX 16 32 0 -8
BITMAP
0000
0000
0000
0000
0000
0000
0000
0000
0000
0000
3C3C
3C3C
3C3C
3C3C
3CF0
3CF0
3CF0
3CF0
3FC0
3FC0
0F00
0F00
0F00
0F00
0000
0000
0000
0000
0000
0000
0000
0000
ENDCHAR
STARTCHAR $119
ENCODING 119
SWIDTH 1200 0
DWIDTH 16 0
BBX 16 32 0 -8
BITMAP
0000
0000
0000
0000
0000
0000
0000
0000
0000
0000
3C0F
3C0F
3C0F
3C0F
F33C
F33C
F33C
F33C
FFFC
FFFC
FFF0
FFF0
30C0
30C0
0000
0000
0000
0000
0000
0000
0000
0000
ENDCHAR
STARTCHAR $120
ENCODING 120
SWIDTH 1200 0
DWIDTH 16 0
BBX 16 32 0 -8
BITMAP
0000
0000
0000
0000
0000
0000
0000
0000
0000
0000
0F0F
0F0F
0F3C
0F3C
0FF0
0FF0
03C0
03C0
0FF0
0FF0
3CF0
3CF0
F0F0
F0F0
0000
0000
0000
0000
0000
0000
0000
0000
ENDCHAR
STARTCHAR $121
ENCODING 121
SWIDTH 1200 0
DWIDTH 16 0
BBX 16 32 0 -8
BITMAP
0000
0000
0000
0000
0000
0000
0000
0000
0000
0000
3C3C
3C3C
3C3C
3C3C
3C3C
3C3C
F0F0
F0F0
F0F0
F0F0
F0F0
F0F0
3FF0
3FF0
03C0
03C0
03C0
03C0
03C0
03C0
FF00
FF00
ENDCHAR
STARTCHAR $122
ENCODING 122
SWIDTH 1200 0
DWIDTH 16 0
BBX 16 32 0 -8
BITMAP
0000
0000
0000
0000
0000
0000
0000
0000
0000
0000
3FFC
3FFC
003C
003C
00F0
00F0
0FC0
0FC0
3C00
3C00
F000
F000
FFF0
FFF0
0000
0000
0000
0000
0000
0000
0000
0000
ENDCHAR
STARTCHAR $123
ENCODING 123
SWIDTH 1200 0
DWIDTH 16 0
BBX 16 32 0 -8
BITMAP
0000
0000
003F
003F
00F0
00F0
00F0
00F0
00F0
00F0
03C0
03C0
03C0
03C0
3F00
3F00
03C0
03C0
03C0
03C0
0F00
0F00
0F00
0F00
0F00
0F00
03F0
03F0
0000
0000
0000
0000
ENDCHAR
STARTCHAR $124
ENCODING 124
SWIDTH 1200 0
DWIDTH 16 0
BBX 16 32 0 -8
BITMAP
0000
0000
00F0
00F0
00F0
00F0
00F0
00F0
00F0
00F0
03C0
03C0
03C0
03C0
03C0
03C0
03C0
03C0
03C0
03C0
0F00
0F00
0F00
0F00
0F00
0F00
0F00
0F00
0000
0000
0000
0000
ENDCHAR
STARTCHAR $125
ENCODING 125
SWIDTH 1200 0
DWIDTH 16 0
BBX 16 32 0 -8
BITMAP
0000
0000
0FC0
0FC0
00F0
00F0
00F0
00F0
00F0
00F0
03C0
03C0
03C0
03C0
00FC
00FC
03C0
03C0
03C0
03C0
0F00
0F00
0F00
0F00
0F00
0F00
FC00
FC00
0000
0000
0000
0000
ENDCHAR
STARTCHAR $126
ENCODING 126
SWIDTH 1200 0
DWIDTH 16 0
BBX 16 32 0 -8
BITMAP
0000
0000
0000
0000
0000
0000
0000
0000
0000
0000
0000
0000
0F0C
0F0C
3FFC
3FFC
30F0
30F0
0000
0000
0000
0000
0000
0000
0000
0000
0000
0000
0000
0000
0000
0000
ENDCHAR
STARTCHAR $127
ENCODING 127
SWIDTH 1200 0
DWIDTH 16 0
BBX 16 32 0 -8
BITMAP
0000
0000
0000
0000
0000
0000
0000
0000
0000
0000
0000
0000
0000
0000
0000
0000
0000
0000
0000
0000
0000
0000
0000
0000
0000
0000
0000
0000
0000
0000
0000
0000
ENDCHAR
STARTCHAR $128
ENCODING 128
SWIDTH 1200 0
DWIDTH 16 0
BBX 16 32 0 -8
BITMAP
0000
0000
0000
0000
0000
0000
0000
0000
0000
0000
03F0
03F0
0F3C
0F3C
3FC0
3FC0
0F00
0F00
FFC0
FFC0
3CF0
3CF0
0FC0
0FC0
0000
0000
0000
0000
0000
0000
0000
0000
ENDCHAR
STARTCHAR $129
ENCODING 129
SWIDTH 1200 0
DWIDTH 16 0
BBX 16 32 0 -8
BITMAP
0000
0000
0000
0000
0000
0000
0000
0000
0000
0000
0000
0000
0000
0000
0000
0000
0000
0000
0000
0000
0000
0000
0000
0000
0000
0000
0000
0000
0000
0000
0000
0000
ENDCHAR
STARTCHAR $130
ENCODING 130
SWIDTH 1200 0
DWIDTH 16 0
BBX 16 32 0 -8
BITMAP
0000
0000
0000
0000
0000
0000
0000
0000
0000
0000
0000
0000
0000
0000
0000
0000
0000
0000
0000
0000
03C0
03C0
03C0
03C0
0F00
0F00
3C00
3C00
0000
0000
0000
0000
ENDCHAR
STARTCHAR $131
ENCODING 131
SWIDTH 1200 0
DWIDTH 16 0
BBX 16 32 0 -8
BITMAP
0000
0000
003F
003F
00F0
00F0
00F0
00F0
00F0
00F0
0FFC
0FFC
03C0
03C0
03C0
03C0
03C0
03C0
03C0
03C0
0F00
0F00
0F00
0F00
0F00
0F00
FC00
FC00
0000
0000
0000
0000
ENDCHAR
STARTCHAR $132
ENCODING 132
SWIDTH 1200 0
DWIDTH 16 0
BBX 16 32 0 -8
BITMAP
0000
0000
0000
0000
0000
0000
0000
0000
0000
0000
0000
0000
0000
0000
0000
0000
0000
0000
0000
0000
3C3C
3C3C
3C3C
3C3C
3C3C
3C3C
0000
0000
0000
0000
0000
0000
ENDCHAR
STARTCHAR $133
ENCODING 133
SWIDTH 1200 0
DWIDTH 16 0
BBX 16 32 0 -8
BITMAP
0000
0000
0000
0000
0000
0000
0000
0000
0000
0000
0000
0000
0000
0000
0000
0000
0000
0000
0000
0000
0000
0000
3330
3330
0000
0000
0000
0000
0000
0000
0000
0000
ENDCHAR
STARTCHAR $134
ENCODING 134
SWIDTH 1200 0
DWIDTH 16 0
BBX 16 32 0 -8
BITMAP
0000
0000
00F0
00F0
00F0
00F0
00F0
00F0
3FFC
3FFC
03C0
03C0
03C0
03C0
03C0
03C0
03C0
03C0
0F00
0F00
0F00
0F00
0F00
0F00
0000
0000
0000
0000
0000
0000
0000
0000
ENDCHAR
STARTCHAR $135
ENCODING 135
SWIDTH 1200 0
DWIDTH 16 0
BBX 16 32 0 -8
BITMAP
0000
0000
00F0
00F0
00F0
00F0
00F0
00F0
3FFC
3FFC
03C0
03C0
03C0
03C0
3FFC
3FFC
03C0
03C0
0F00
0F00
0F00
0F00
0F00
0F00
0000
0000
0000
0000
0000
0000
0000
0000
ENDCHAR
STARTCHAR $136
ENCODING 136
SWIDTH 1200 0
DWIDTH 16 0
BBX 16 32 0 -8
BITMAP
0000
0000
03F0
03F0
0F3C
0F3C
3C3C
3C3C
0000
0000
0000
0000
0000
0000
0000
0000
0000
0000
0000
0000
0000
0000
0000
0000
0000
0000
0000
0000
0000
0000
0000
0000
ENDCHAR
STARTCHAR $137
ENCODING 137
SWIDTH 1200 0
DWIDTH 16 0
BBX 16 32 0 -8
BITMAP
0000
0000
0000
0000
0000
0000
0000
0000
30C0
30C0
30C0
30C0
0300
0300
0300
0300
0C00
0C00
0C00
0C00
3330
3330
3330
3330
0000
0000
0000
0000
0000
0000
0000
0000
ENDCHAR
STARTCHAR $138
ENCODING 138
SWIDTH 1200 0
DWIDTH 16 0
BBX 16 32 0 -8
BITMAP
0000
0000
03CF
03CF
00FC
00FC
03FC
03FC
0F0F
0F0F
3C00
3C00
3C00
3C00
0FF0
0FF0
003C
003C
003C
003C
F0F0
F0F0
3FC0
3FC0
0000
0000
0000
0000
0000
0000
0000
0000
ENDCHAR
STARTCHAR $139
ENCODING 139
SWIDTH 1200 0
DWIDTH 16 0
BBX 16 32 0 -8
BITMAP
0000
0000
0000
0000
0000
0000
0000
0000
0000
0000
0000
0000
03C0
03C0
0F00
0F00
3C00
3C00
3C00
3C00
0F00
0F00
0000
0000
0000
0000
0000
0000
0000
0000
0000
0000
ENDCHAR
STARTCHAR $140
ENCODING 140
SWIDTH 1200 0
DWIDTH 16 0
BBX 16 32 0 -8
BITMAP
0000
0000
0000
0000
0000
0000
03CF
03CF
0F3C
0F3C
0F30
0F30
3CF0
3CF0
3CFC
3CFC
3CC0
3CC0
F3C0
F3C0
F3C0
F3C0
3CF0
3CF0
0000
0000
0000
0000
0000
0000
0000
0000
ENDCHAR
STARTCHAR $141
ENCODING 141
SWIDTH 1200 0
DWIDTH 16 0
BBX 16 32 0 -8
BITMAP
0000
0000
0000
0000
0000
0000
0000
0000
0000
0000
0000
0000
0000
0000
0000
0000
0000
0000
0000
0000
0000
0000
0000
0000
0000
0000
0000
0000
0000
0000
0000
0000
ENDCHAR
STARTCHAR $142
ENCODING 142
SWIDTH 1200 0
DWIDTH 16 0
BBX 16 32 0 -8
BITMAP
0000
0000
03CF
03CF
00FC
00FC
0FFF
0FFF
000F
000F
003C
003C
00F0
00F0
03C0
03C0
0F00
0F00
3C00
3C00
F000
F000
FFF0
FFF0
0000
0000
0000
0000
0000
0000
0000
0000
ENDCHAR
STARTCHAR $143
ENCODING 143
SWIDTH 1200 0
DWIDTH 16 0
BBX 16 32 0 -8
BITMAP
0000
0000
0000
0000
0000
0000
0000
0000
0000
0000
0000
0000
0000
0000
0000
0000
0000
0000
0000
0000
0000
0000
0000
0000
0000
0000
0000
0000
0000
0000
0000
0000
ENDCHAR
STARTCHAR $144
ENCODING 144
SWIDTH 1200 0
DWIDTH 16 0
BBX 16 32 0 -8
BITMAP
0000
0000
0000
0000
0000
0000
0000
0000
0000
0000
0000
0000
0000
0000
0000
0000
0000
0000
0000
0000
0000
0000
0000
0000
0000
0000
0000
0000
0000
0000
0000
0000
ENDCHAR
STARTCHAR $145
ENCODING 145
SWIDTH 1200 0
DWIDTH 16 0
BBX 16 32 0 -8
BITMAP
0000
0000
0FC0
0FC0
03C0
03C0
00F0
00F0
0000
0000
0000
0000
0000
0000
0000
0000
0000
0000
0000
0000
0000
0000
0000
0000
0000
0000
0000
0000
0000
0000
0000
0000
ENDCHAR
STARTCHAR $146
ENCODING 146
SWIDTH 1200 0
DWIDTH 16 0
BBX 16 32 0 -8
BITMAP
0000
0000
03F0
03F0
03C0
03C0
0F00
0F00
0000
0000
0000
0000
0000
0000
0000
0000
0000
0000
0000
0000
0000
0000
0000
0000
0000
0000
0000
0000
0000
0000
0000
0000
ENDCHAR
STARTCHAR $147
ENCODING 147
SWIDTH 1200 0
DWIDTH 16 0
BBX 16 32 0 -8
BITMAP
0000
0000
3CF0
3CF0
3CF0
3CF0
0F3C
0F3C
0000
0000
0000
0000
0000
0000
0000
0000
0000
0000
0000
0000
0000
0000
0000
0000
0000
0000
0000
0000
0000
0000
0000
0000
ENDCHAR
STARTCHAR $148
ENCODING 148
SWIDTH 1200 0
DWIDTH 16 0
BBX 16 32 0 -8
BITMAP
0000
0000
0F3C
0F3C
0F3C
0F3C
3CF0
3CF0
0000
0000
0000
0000
0000
0000
0000
0000
0000
0000
0000
0000
0000
0000
0000
0000
0000
0000
0000
0000
0000
0000
0000
0000
ENDCHAR
STARTCHAR $149
ENCODING 149
SWIDTH 1200 0
DWIDTH 16 0
BBX 16 32 0 -8
BITMAP
0000
0000
0000
0000
0000
0000
0000
0000
0000
0000
0000
0000
03C0
03C0
0FF0
0FF0
3FFC
3FFC
0FF0
0FF0
03C0
03C0
0000
0000
0000
0000
0000
0000
0000
0000
0000
0000
ENDCHAR
STARTCHAR $150
ENCODING 150
SWIDTH 1200 0
DWIDTH 16 0
BBX 16 32 0 -8
BITMAP
0000
0000
0000
0000
0000
0000
0000
0000
0000
0000
0000
0000
0000
0000
0000
0000
3FFC
3FFC
0000
0000
0000
0000
0000
0000
0000
0000
0000
0000
0000
0000
0000
0000
ENDCHAR
STARTCHAR $151
ENCODING 151
SWIDTH 1200 0
DWIDTH 16 0
BBX 16 32 0 -8
BITMAP
0000
0000
0000
0000
0000
0000
0000
0000
0000
0000
0000
0000
0000
0000
0000
0000
FFFF
FFFF
0000
0000
0000
0000
0000
0000
0000
0000
0000
0000
0000
0000
0000
0000
ENDCHAR
STARTCHAR $152
ENCODING 152
SWIDTH 1200 0
DWIDTH 16 0
BBX 16 32 0 -8
BITMAP
0000
0000
0000
0000
0000
0000
0F30
0F30
33C0
33C0
0000
0000
0000
0000
0000
0000
0000
0000
0000
0000
0000
0000
0000
0000
0000
0000
0000
0000
0000
0000
0000
0000
ENDCHAR
STARTCHAR $153
ENCODING 153
SWIDTH 1200 0
DWIDTH 16 0
BBX 16 32 0 -8
BITMAP
0000
0000
0000
0000
0000
0000
3FCC
3FCC
0CFC
0CFC
0CCC
0CCC
0CCC
0CCC
0000
0000
0000
0000
0000
0000
0000
0000
0000
0000
0000
0000
0000
0000
0000
0000
0000
0000
ENDCHAR
STARTCHAR $154
ENCODING 154
SWIDTH 1200 0
DWIDTH 16 0
BBX 16 32 0 -8
BITMAP
0000
0000
0000
0000
0F3C
0F3C
03F0
03F0
0000
0000
0FF0
0FF0
3C3C
3C3C
3C00
3C00
0FC0
0FC0
00F0
00F0
F0F0
F0F0
3FC0
3FC0
0000
0000
0000
0000
0000
0000
0000
0000
ENDCHAR
STARTCHAR $155
ENCODING 155
SWIDTH 1200 0
DWIDTH 16 0
BBX 16 32 0 -8
BITMAP
0000
0000
0000
0000
0000
0000
0000
0000
0000
0000
0000
0000
0F00
0F00
03C0
03C0
03C0
03C0
0F00
0F00
3C00
3C00
0000
0000
0000
0000
0000
0000
0000
0000
0000
0000
ENDCHAR
STARTCHAR $156
ENCODING 156
SWIDTH 1200 0
DWIDTH 16 0
BBX 16 32 0 -8
BITMAP
0000
0000
0000
0000
0000
0000
0000
0000
0000
0000
0F30
0F30
33CC
33CC
33CC
33CC
CFF0
CFF0
CF00
CF00
CF0C
CF0C
3CF0
3CF0
0000
0000
0000
0000
0000
0000
0000
0000
ENDCHAR
STARTCHAR $157
ENCODING 157
SWIDTH 1200 0
DWIDTH 16 0
BBX 16 32 0 -8
BITMAP
0000
0000
0000
0000
0000
0000
0000
0000
0000
0000
0000
0000
0000
0000
0000
0000
0000
0000
0000
0000
0000
0000
0000
0000
0000
0000
0000
0000
0000
0000
0000
0000
ENDCHAR
STARTCHAR $158
ENCODING 158
SWIDTH 1200 0
DWIDTH 16 0
BBX 16 32 0 -8
BITMAP
0000
0000
0000
0000
0F3C
0F3C
03F0
03F0
0000
0000
3FFC
3FFC
00F0
00F0
03C0
03C0
0F00
0F00
3C00
3C00
F000
F000
FFF0
FFF0
0000
0000
0000
0000
0000
0000
0000
0000
ENDCHAR
STARTCHAR $159
ENCODING 159
SWIDTH 1200 0
DWIDTH 16 0
BBX 16 32 0 -8
BITMAP
0000
0000
0F0F
0F0F
0F0F
0F0F
0000
0000
3C0F
3C0F
3C0F
3C0F
3C3C
3C3C
0FF0
0FF0
0FC0
0FC0
0F00
0F00
3C00
3C00
3C00
3C00
0000
0000
0000
0000
0000
0000
0000
0000
ENDCHAR
STARTCHAR $160
ENCODING 160
SWIDTH 1200 0
DWIDTH 16 0
BBX 16 32 0 -8
BITMAP
0000
0000
0000
0000
0000
0000
0000
0000
0000
0000
0000
0000
0000
0000
0000
0000
0000
0000
0000
0000
0000
0000
0000
0000
0000
0000
0000
0000
0000
0000
0000
0000
ENDCHAR
STARTCHAR $161
ENCODING 161
SWIDTH 1200 0
DWIDTH 16 0
BBX 16 32 0 -8
BITMAP
0000
0000
0000
0000
00F0
00F0
00F0
00F0
0000
0000
0000
0000
03C0
03C0
03C0
03C0
03C0
03C0
0F00
0F00
0F00
0F00
0F00
0F00
0000
0000
0000
0000
0000
0000
0000
0000
ENDCHAR
STARTCHAR $162
ENCODING 162
SWIDTH 1200 0
DWIDTH 16 0
BBX 16 32 0 -8
BITMAP
0000
0000
0000
0000
0000
0000
0000
0000
00C0
00C0
0FF0
0FF0
3CCC
3CCC
3CC0
3CC0
F0C0
F0C0
F300
F300
F330
F330
3FC0
3FC0
0300
0300
0000
0000
0000
0000
0000
0000
ENDCHAR
STARTCHAR $163
ENCODING 163
SWIDTH 1200 0
DWIDTH 16 0
BBX 16 32 0 -8
BITMAP
0000
0000
0000
0000
0000
0000
00FC
00FC
03CF
03CF
03C0
03C0
0F00
0F00
3FF0
3FF0
0F00
0F00
3C00
3C00
F000
F000
FFF0
FFF0
0000
0000
0000
0000
0000
0000
0000
0000
ENDCHAR
STARTCHAR $164
ENCODING 164
SWIDTH 1200 0
DWIDTH 16 0
BBX 16 32 0 -8
BITMAP
0000
0000
0000
0000
0000
0000
0000
0000
0000
0000
3C3C
3C3C
0FF0
0FF0
0F30
0F30
3CC0
3CC0
3FC0
3FC0
F0F0
F0F0
0000
0000
0000
0000
0000
0000
0000
0000
0000
0000
ENDCHAR
STARTCHAR $165
ENCODING 165
SWIDTH 1200 0
DWIDTH 16 0
BBX 16 32 0 -8
BITMAP
0000
0000
0000
0000
0000
0000
3C0F
3C0F
3C0F
3C0F
3C3C
3C3C
0FF0
0FF0
0FC0
0FC0
0F00
0F00
FFF0
FFF0
3C00
3C00
3C00
3C00
0000
0000
0000
0000
0000
0000
0000
0000
ENDCHAR
STARTCHAR $166
ENCODING 166
SWIDTH 1200 0
DWIDTH 16 0
BBX 16 32 0 -8
BITMAP
0000
0000
003C
003C
003C
003C
003C
003C
00F0
00F0
00F0
00F0
00F0
00F0
0000
0000
0000
0000
0F00
0F00
0F00
0F00
0F00
0F00
3C00
3C00
3C00
3C00
3C00
3C00
0000
0000
ENDCHAR
STARTCHAR $167
ENCODING 167
SWIDTH 1200 0
DWIDTH 16 0
BBX 16 32 0 -8
BITMAP
0000
0000
0000
0000
0000
0000
03FC
03FC
0F0F
0F0F
0F00
0F00
03C0
03C0
0F30
0F30
03C0
03C0
00F0
00F0
F0F0
F0F0
3FC0
3FC0
0000
0000
0000
0000
0000
0000
0000
0000
ENDCHAR
STARTCHAR $168
ENCODING 168
SWIDTH 1200 0
DWIDTH 16 0
BBX 16 32 0 -8
BITMAP
0000
0000
3C3C
3C3C
3C3C
3C3C
0000
0000
0000
0000
0000
0000
0000
0000
0000
0000
0000
0000
0000
0000
0000
0000
0000
0000
0000
0000
0000
0000
0000
0000
0000
0000
ENDCHAR
STARTCHAR $169
ENCODING 169
SWIDTH 1200 0
DWIDTH 16 0
BBX 16 32 0 -8
BITMAP
0000
0000
0000
0000
0000
0000
03FC
03FC
0F0F
0F0F
0FCF
0FCF
3F3C
3F3C
3F3C
3F3C
3CFC
3CFC
F3F0
F3F0
F0F0
F0F0
3FC0
3FC0
0000
0000
0000
0000
0000
0000
0000
0000
ENDCHAR
STARTCHAR $170
ENCODING 170
SWIDTH 1200 0
DWIDTH 16 0
BBX 16 32 0 -8
BITMAP
0000
0000
0000
0000
0000
0000
0F00
0F00
00C0
00C0
0FC0
0FC0
30C0
30C0
0FC0
0FC0
0000
0000
0000
0000
0000
0000
0000
0000
0000
0000
0000
0000
0000
0000
0000
0000
ENDCHAR
STARTCHAR $171
ENCODING 171
SWIDTH 1200 0
DWIDTH 16 0
BBX 16 32 0 -8
BITMAP
0000
0000
0000
0000
0000
0000
0000
0000
0000
0000
0000
0000
0F3C
0F3C
3CF0
3CF0
F3C0
F3C0
F3C0
F3C0
3CF0
3CF0
0000
0000
0000
0000
0000
0000
0000
0000
0000
0000
ENDCHAR
STARTCHAR $172
ENCODING 172
SWIDTH 1200 0
DWIDTH 16 0
BBX 16 32 0 -8
BITMAP
0000
0000
0000
0000
0000
0000
0000
0000
0000
0000
0000
0000
0000
0000
3FF0
3FF0
00F0
00F0
03C0
03C0
03C0
03C0
0000
0000
0000
0000
0000
0000
0000
0000
0000
0000
ENDCHAR
STARTCHAR $173
ENCODING 173
SWIDTH 1200 0
DWIDTH 16 0
BBX 16 32 0 -8
BITMAP
0000
0000
0000
0000
0000
0000
0000
0000
0000
0000
0000
0000
0000
0000
0000
0000
0000
0000
0000
0000
0000
0000
0000
0000
0000
0000
0000
0000
0000
0000
0000
0000
ENDCHAR
STARTCHAR $174
ENCODING 174
SWIDTH 1200 0
DWIDTH 16 0
BBX 16 32 0 -8
BITMAP
0000
0000
0000
0000
0000
0000
03FC
03FC
0C03
0C03
0FC3
0FC3
333C
333C
3FCC
3FCC
3CFC
3CFC
CCF0
CCF0
C030
C030
3FC0
3FC0
0000
0000
0000
0000
0000
0000
0000
0000
ENDCHAR
STARTCHAR $175
ENCODING 175
SWIDTH 1200 0
DWIDTH 16 0
BBX 16 32 0 -8
BITMAP
FFFF
FFFF
0000
0000
0000
0000
0000
0000
0000
0000
0000
0000
0000
0000
0000
0000
0000
0000
0000
0000
0000
0000
0000
0000
0000
0000
0000
0000
0000
0000
0000
0000
ENDCHAR
STARTCHAR $176
ENCODING 176
SWIDTH 1200 0
DWIDTH 16 0
BBX 16 32 0 -8
BITMAP
0000
0000
0FC0
0FC0
3CF0
3CF0
3CF0
3CF0
0FC0
0FC0
0000
0000
0000
0000
0000
0000
0000
0000
0000
0000
0000
0000
0000
0000
0000
0000
0000
0000
0000
0000
0000
0000
ENDCHAR
STARTCHAR $177
ENCODING 177
SWIDTH 1200 0
DWIDTH 16 0
BBX 16 32 0 -8
BITMAP
0000
0000
0000
0000
0000
0000
0000
0000
03C0
03C0
03C0
03C0
FFFC
FFFC
0F00
0F00
0F00
0F00
0000
0000
FFC0
FFC0
0000
0000
0000
0000
0000
0000
0000
0000
0000
0000
ENDCHAR
STARTCHAR $178
ENCODING 178
SWIDTH 1200 0
DWIDTH 16 0
BBX 16 32 0 -8
BITMAP
0000
0000
3FC0
3FC0
00F0
00F0
03C0
03C0
0F00
0F00
3C00
3C00
3FF0
3FF0
0000
0000
0000
0000
0000
0000
0000
0000
0000
0000
0000
0000
0000
0000
0000
0000
0000
0000
ENDCHAR
STARTCHAR $179
ENCODING 179
SWIDTH 1200 0
DWIDTH 16 0
BBX 16 32 0 -8
BITMAP
0000
0000
3FC0
3FC0
00F0
00F0
0FC0
0FC0
00F0
00F0
00F0
00F0
3FC0
3FC0
0000
0000
0000
0000
0000
0000
0000
0000
0000
0000
0000
0000
0000
0000
0000
0000
0000
0000
ENDCHAR
STARTCHAR $180
ENCODING 180
SWIDTH 1200 0
DWIDTH 16 0
BBX 16 32 0 -8
BITMAP
0000
0000
03F0
03F0
03C0
03C0
0F00
0F00
0000
0000
0000
0000
0000
0000
0000
0000
0000
0000
0000
0000
0000
0000
0000
0000
0000
0000
0000
0000
0000
0000
0000
0000
ENDCHAR
STARTCHAR $181
ENCODING 181
SWIDTH 1200 0
DWIDTH 16 0
BBX 16 32 0 -8
BITMAP
0000
0000
0000
0000
0000
0000
0000
0000
0000
0000
0F3C
0F3C
0F3C
0F3C
0F3C
0F3C
3CF0
3CF0
3CF0
3CF0
3FF0
3FF0
3CC0
3CC0
3C00
3C00
3C00
3C00
F000
F000
0000
0000
ENDCHAR
STARTCHAR $182
ENCODING 182
SWIDTH 1200 0
DWIDTH 16 0
BBX 16 32 0 -8
BITMAP
0000
0000
0000
0000
0000
0000
0FFC
0FFC
3F30
3F30
3F30
3F30
3F30
3F30
0F30
0F30
0330
0330
0330
0330
0330
0330
0330
0330
0330
0330
0330
0330
0000
0000
0000
0000
ENDCHAR
STARTCHAR $183
ENCODING 183
SWIDTH 1200 0
DWIDTH 16 0
BBX 16 32 0 -8
BITMAP
0000
0000
0000
0000
0000
0000
0000
0000
0000
0000
0000
0000
0300
0300
0FC0
0FC0
0300
0300
0000
0000
0000
0000
0000
0000
0000
0000
0000
0000
0000
0000
0000
0000
ENDCHAR
STARTCHAR $184
ENCODING 184
SWIDTH 1200 0
DWIDTH 16 0
BBX 16 32 0 -8
BITMAP
0000
0000
0000
0000
0000
0000
0000
0000
0000
0000
0000
0000
0000
0000
0000
0000
0000
0000
0000
0000
0000
0000
0FC0
0FC0
0FC0
0FC0
03C0
03C0
0F00
0F00
0000
0000
ENDCHAR
STARTCHAR $185
ENCODING 185
SWIDTH 1200 0
DWIDTH 16 0
BBX 16 32 0 -8
BITMAP
0000
0000
0F00
0F00
3F00
3F00
0F00
0F00
0F00
0F00
0F00
0F00
3FC0
3FC0
0000
0000
0000
0000
0000
0000
0000
0000
0000
0000
0000
0000
0000
0000
0000
0000
0000
0000
ENDCHAR
STARTCHAR $186
ENCODING 186
SWIDTH 1200 0
DWIDTH 16 0
BBX 16 32 0 -8
BITMAP
0000
0000
0FC0
0FC0
3CF0
3CF0
3CF0
3CF0
3CF0
3CF0
3CF0
3CF0
0FC0
0FC0
0000
0000
0000
0000
0000
0000
0000
0000
0000
0000
0000
0000
0000
0000
0000
0000
0000
0000
ENDCHAR
STARTCHAR $187
ENCODING 187
SWIDTH 1200 0
DWIDTH 16 0
BBX 16 32 0 -8
BITMAP
0000
0000
0000
0000
0000
0000
0000
0000
0000
0000
0000
0000
3CF0
3CF0
0F3C
0F3C
0F3C
0F3C
3CF0
3CF0
F3C0
F3C0
0000
0000
0000
0000
0000
0000
0000
0000
0000
0000
ENDCHAR
STARTCHAR $188
ENCODING 188
SWIDTH 1200 0
DWIDTH 16 0
BBX 16 32 0 -8
BITMAP
0000
0000
000C
000C
0C0C
0C0C
3C30
3C30
0C30
0C30
0CC0
0CC0
00C0
00C0
0300
0300
030C
030C
0C3C
0C3C
0CFC
0CFC
300C
300C
300C
300C
0000
0000
0000
0000
0000
0000
ENDCHAR
STARTCHAR $189
ENCODING 189
SWIDTH 1200 0
DWIDTH 16 0
BBX 16 32 0 -8
BITMAP
0000
0000
000C
000C
0C0C
0C0C
3C30
3C30
0C30
0C30
0CC0
0CC0
00C0
00C0
0300
0300
0330
0330
0CCC
0CCC
0C0C
0C0C
3030
3030
30FC
30FC
0000
0000
0000
0000
0000
0000
ENDCHAR
STARTCHAR $190
ENCODING 190
SWIDTH 1200 0
DWIDTH 16 0
BBX 16 32 0 -8
BITMAP
0000
0000
000C
000C
3C0C
3C0C
0C30
0C30
3030
3030
0CC0
0CC0
3CC0
3CC0
0300
0300
030C
030C
0C3C
0C3C
0CFC
0CFC
300C
300C
300C
300C
0000
0000
0000
0000
0000
0000
ENDCHAR
STARTCHAR $191
ENCODING 191
SWIDTH 1200 0
DWIDTH 16 0
BBX 16 32 0 -8
BITMAP
0000
0000
0000
0000
00F0
00F0
00F0
00F0
0000
0000
03C0
03C0
03C0
03C0
0F00
0F00
3C00
3C00
F000
F000
F0F0
F0F0
3FC0
3FC0
0000
0000
0000
0000
0000
0000
0000
0000
ENDCHAR
STARTCHAR $192
ENCODING 192
SWIDTH 1200 0
DWIDTH 16 0
BBX 16 32 0 -8
BITMAP
0000
0000
00F0
00F0
003C
003C
0000
0000
003C
003C
00FC
00FC
033C
033C
0F3C
0F3C
3FFC
3FFC
3C3C
3C3C
F03C
F03C
F03C
F03C
0000
0000
0000
0000
0000
0000
0000
0000
ENDCHAR
STARTCHAR $193
ENCODING 193
SWIDTH 1200 0
DWIDTH 16 0
BBX 16 32 0 -8
BITMAP
0000
0000
000F
000F
003C
003C
0000
0000
003C
003C
00FC
00FC
033C
033C
0F3C
0F3C
3FFC
3FFC
3C3C
3C3C
F03C
F03C
F03C
F03C
0000
0000
0000
0000
0000
0000
0000
0000
ENDCHAR
STARTCHAR $194
ENCODING 194
SWIDTH 1200 0
DWIDTH 16 0
BBX 16 32 0 -8
BITMAP
0000
0000
00FC
00FC
03CF
03CF
0000
0000
003C
003C
00FC
00FC
033C
033C
0F3C
0F3C
3FFC
3FFC
3C3C
3C3C
F03C
F03C
F03C
F03C
0000
0000
0000
0000
0000
0000
0000
0000
ENDCHAR
STARTCHAR $195
ENCODING 195
SWIDTH 1200 0
DWIDTH 16 0
BBX 16 32 0 -8
BITMAP
0000
0000
00F3
00F3
033C
033C
0000
0000
003C
003C
00FC
00FC
033C
033C
0F3C
0F3C
3FFC
3FFC
3C3C
3C3C
F03C
F03C
F03C
F03C
0000
0000
0000
0000
0000
0000
0000
0000
ENDCHAR
STARTCHAR $196
ENCODING 196
SWIDTH 1200 0
DWIDTH 16 0
BBX 16 32 0 -8
BITMAP
0000
0000
0F0F
0F0F
0F0F
0F0F
0000
0000
003C
003C
00FC
00FC
033C
033C
0F3C
0F3C
3FFC
3FFC
3C3C
3C3C
F03C
F03C
F03C
F03C
0000
0000
0000
0000
0000
0000
0000
0000
ENDCHAR
STARTCHAR $197
ENCODING 197
SWIDTH 1200 0
DWIDTH 16 0
BBX 16 32 0 -8
BITMAP
00FC
00FC
03CF
03CF
00FC
00FC
003C
003C
00FC
00FC
03FC
03FC
0F3C
0F3C
0F3C
0F3C
3FFC
3FFC
3C3C
3C3C
F03C
F03C
F03C
F03C
0000
0000
0000
0000
0000
0000
0000
0000
ENDCHAR
STARTCHAR $198
ENCODING 198
SWIDTH 1200 0
DWIDTH 16 0
BBX 16 32 0 -8
BITMAP
0000
0000
0000
0000
0000
0000
00FF
00FF
03FC
03FC
0F30
0F30
0CF0
0CF0
3CFC
3CFC
3FC0
3FC0
F3C0
F3C0
F3C0
F3C0
F3F0
F3F0
0000
0000
0000
0000
0000
0000
0000
0000
ENDCHAR
STARTCHAR $199
ENCODING 199
SWIDTH 1200 0
DWIDTH 16 0
BBX 16 32 0 -8
BITMAP
0000
0000
0000
0000
0000
0000
03FC
03FC
0F0F
0F0F
0F00
0F00
3C00
3C00
3C00
3C00
3C00
3C00
F000
F000
F0F0
F0F0
3FC0
3FC0
0F00
0F00
3C00
3C00
F000
F000
0000
0000
ENDCHAR
STARTCHAR $200
ENCODING 200
SWIDTH 1200 0
DWIDTH 16 0
BBX 16 32 0 -8
BITMAP
0000
0000
00F0
00F0
003C
003C
0000
0000
0FFF
0FFF
0F00
0F00
3C00
3C00
3FF0
3FF0
3C00
3C00
F000
F000
F000
F000
FFF0
FFF0
0000
0000
0000
0000
0000
0000
0000
0000
ENDCHAR
STARTCHAR $201
ENCODING 201
SWIDTH 1200 0
DWIDTH 16 0
BBX 16 32 0 -8
BITMAP
0000
0000
003C
003C
00F0
00F0
0000
0000
0FFF
0FFF
0F00
0F00
3C00
3C00
3FF0
3FF0
3C00
3C00
F000
F000
F000
F000
FFF0
FFF0
0000
0000
0000
0000
0000
0000
0000
0000
ENDCHAR
STARTCHAR $202
ENCODING 202
SWIDTH 1200 0
DWIDTH 16 0
BBX 16 32 0 -8
BITMAP
0000
0000
00FC
00FC
03CF
03CF
0000
0000
0FFF
0FFF
0F00
0F00
3C00
3C00
3FF0
3FF0
3C00
3C00
F000
F000
F000
F000
FFF0
FFF0
0000
0000
0000
0000
0000
0000
0000
0000
ENDCHAR
STARTCHAR $203
ENCODING 203
SWIDTH 1200 0
DWIDTH 16 0
BBX 16 32 0 -8
BITMAP
0000
0000
0F0F
0F0F
0F0F
0F0F
0000
0000
0FFF
0FFF
0F00
0F00
3C00
3C00
3FF0
3FF0
3C00
3C00
F000
F000
F000
F000
FFF0
FFF0
0000
0000
0000
0000
0000
0000
0000
0000
ENDCHAR
STARTCHAR $204
ENCODING 204
SWIDTH 1200 0
DWIDTH 16 0
BBX 16 32 0 -8
BITMAP
0000
0000
00F0
00F0
003C
003C
0000
0000
0FFF
0FFF
00F0
00F0
00F0
00F0
03C0
03C0
03C0
03C0
0F00
0F00
0F00
0F00
FFC0
FFC0
0000
0000
0000
0000
0000
0000
0000
0000
ENDCHAR
STARTCHAR $205
ENCODING 205
SWIDTH 1200 0
DWIDTH 16 0
BBX 16 32 0 -8
BITMAP
0000
0000
003C
003C
00F0
00F0
0000
0000
0FFF
0FFF
00F0
00F0
00F0
00F0
03C0
03C0
03C0
03C0
0F00
0F00
0F00
0F00
FFF0
FFF0
0000
0000
0000
0000
0000
0000
0000
0000
ENDCHAR
STARTCHAR $206
ENCODING 206
SWIDTH 1200 0
DWIDTH 16 0
BBX 16 32 0 -8
BITMAP
0000
0000
00FC
00FC
03CF
03CF
0000
0000
0FFF
0FFF
00F0
00F0
00F0
00F0
03C0
03C0
03C0
03C0
0F00
0F00
0F00
0F00
FFF0
FFF0
0000
0000
0000
0000
0000
0000
0000
0000
ENDCHAR
STARTCHAR $207
ENCODING 207
SWIDTH 1200 0
DWIDTH 16 0
BBX 16 32 0 -8
BITMAP
0000
0000
0F0F
0F0F
0F0F
0F0F
0000
0000
0FFF
0FFF
00F0
00F0
00F0
00F0
03C0
03C0
03C0
03C0
0F00
0F00
0F00
0F00
FFF0
FFF0
0000
0000
0000
0000
0000
0000
0000
0000
ENDCHAR
STARTCHAR $208
ENCODING 208
SWIDTH 1200 0
DWIDTH 16 0
BBX 16 32 0 -8
BITMAP
0000
0000
0000
0000
0000
0000
0000
0000
0FF0
0FF0
0F3C
0F3C
0F3C
0F3C
FFFC
FFFC
3CF0
3CF0
3CF0
3CF0
3CF0
3CF0
3FC0
3FC0
0000
0000
0000
0000
0000
0000
0000
0000
ENDCHAR
STARTCHAR $209
ENCODING 209
SWIDTH 1200 0
DWIDTH 16 0
BBX 16 32 0 -8
BITMAP
0000
0000
00F3
00F3
033C
033C
0000
0000
0F0F
0F0F
0FCF
0FCF
3CFC
3CFC
3C3C
3C3C
3C3C
3C3C
F0F0
F0F0
F0F0
F0F0
F0F0
F0F0
0000
0000
0000
0000
0000
0000
0000
0000
ENDCHAR
STARTCHAR $210
ENCODING 210
SWIDTH 1200 0
DWIDTH 16 0
BBX 16 32 0 -8
BITMAP
0000
0000
03C0
03C0
00F0
00F0
0000
0000
0FF0
0FF0
3C3C
3C3C
3C3C
3C3C
3C3C
3C3C
F0F0
F0F0
F0F0
F0F0
F0F0
F0F0
3FC0
3FC0
0000
0000
0000
0000
0000
0000
0000
0000
ENDCHAR
STARTCHAR $211
ENCODING 211
SWIDTH 1200 0
DWIDTH 16 0
BBX 16 32 0 -8
BITMAP
0000
0000
003C
003C
00F0
00F0
0000
0000
0FF0
0FF0
3C3C
3C3C
3C3C
3C3C
3C3C
3C3C
F0F0
F0F0
F0F0
F0F0
F0F0
F0F0
3FC0
3FC0
0000
0000
0000
0000
0000
0000
0000
0000
ENDCHAR
STARTCHAR $212
ENCODING 212
SWIDTH 1200 0
DWIDTH 16 0
BBX 16 32 0 -8
BITMAP
0000
0000
03F0
03F0
0F3C
0F3C
0000
0000
0FF0
0FF0
3C3C
3C3C
3C3C
3C3C
3C3C
3C3C
F0F0
F0F0
F0F0
F0F0
F0F0
F0F0
3FC0
3FC0
0000
0000
0000
0000
0000
0000
0000
0000
ENDCHAR
STARTCHAR $213
ENCODING 213
SWIDTH 1200 0
DWIDTH 16 0
BBX 16 32 0 -8
BITMAP
0000
0000
00F3
00F3
033C
033C
0000
0000
0FF0
0FF0
3C3C
3C3C
3C3C
3C3C
3C3C
3C3C
F0F0
F0F0
F0F0
F0F0
F0F0
F0F0
3FC0
3FC0
0000
0000
0000
0000
0000
0000
0000
0000
ENDCHAR
STARTCHAR $214
ENCODING 214
SWIDTH 1200 0
DWIDTH 16 0
BBX 16 32 0 -8
BITMAP
0000
0000
0F0F
0F0F
0F0F
0F0F
0000
0000
0FF0
0FF0
3C3C
3C3C
3C3C
3C3C
3C3C
3C3C
F0F0
F0F0
F0F0
F0F0
F0F0
F0F0
3FC0
3FC0
0000
0000
0000
0000
0000
0000
0000
0000
ENDCHAR
STARTCHAR $215
ENCODING 215
SWIDTH 1200 0
DWIDTH 16 0
BBX 16 32 0 -8
BITMAP
0000
0000
0000
0000
0000
0000
0000
0000
0000
0000
0000
0000
0F3C
0F3C
0FF0
0FF0
03C0
03C0
0FF0
0FF0
3CF0
3CF0
0000
0000
0000
0000
0000
0000
0000
0000
0000
0000
ENDCHAR
STARTCHAR $216
ENCODING 216
SWIDTH 1200 0
DWIDTH 16 0
BBX 16 32 0 -8
BITMAP
0000
0000
0000
0000
0003
0003
03F3
03F3
0F0C
0F0C
0F3F
0F3F
3CCF
3CCF
3F3C
3F3C
F33C
F33C
FCF0
FCF0
30F0
30F0
CFC0
CFC0
C000
C000
0000
0000
0000
0000
0000
0000
ENDCHAR
STARTCHAR $217
ENCODING 217
SWIDTH 1200 0
DWIDTH 16 0
BBX 16 32 0 -8
BITMAP
0000
0000
03C0
03C0
00F0
00F0
0000
0000
3C3C
3C3C
3C3C
3C3C
3C3C
3C3C
3C3C
3C3C
F0F0
F0F0
F0F0
F0F0
F0F0
F0F0
3FC0
3FC0
0000
0000
0000
0000
0000
0000
0000
0000
ENDCHAR
STARTCHAR $218
ENCODING 218
SWIDTH 1200 0
DWIDTH 16 0
BBX 16 32 0 -8
BITMAP
0000
0000
00F0
00F0
03C0
03C0
0000
0000
3C3C
3C3C
3C3C
3C3C
3C3C
3C3C
3C3C
3C3C
F0F0
F0F0
F0F0
F0F0
F0F0
F0F0
3FC0
3FC0
0000
0000
0000
0000
0000
0000
0000
0000
ENDCHAR
STARTCHAR $219
ENCODING 219
SWIDTH 1200 0
DWIDTH 16 0
BBX 16 32 0 -8
BITMAP
0000
0000
03F0
03F0
0F3C
0F3C
0000
0000
3C3C
3C3C
3C3C
3C3C
3C3C
3C3C
3C3C
3C3C
F0F0
F0F0
F0F0
F0F0
F0F0
F0F0
3FC0
3FC0
0000
0000
0000
0000
0000
0000
0000
0000
ENDCHAR
STARTCHAR $220
ENCODING 220
SWIDTH 1200 0
DWIDTH 16 0
BBX 16 32 0 -8
BITMAP
0000
0000
0F0F
0F0F
0F0F
0F0F
0000
0000
3C3C
3C3C
3C3C
3C3C
3C3C
3C3C
3C3C
3C3C
F0F0
F0F0
F0F0
F0F0
F0F0
F0F0
3FC0
3FC0
0000
0000
0000
0000
0000
0000
0000
0000
ENDCHAR
STARTCHAR $221
ENCODING 221
SWIDTH 1200 0
DWIDTH 16 0
BBX 16 32 0 -8
BITMAP
0000
0000
003C
003C
00F0
00F0
0000
0000
3C0F
3C0F
3C3C
3C3C
3CF0
3CF0
3FC0
3FC0
0F00
0F00
0F00
0F00
3F00
3F00
3F00
3F00
0000
0000
0000
0000
0000
0000
0000
0000
ENDCHAR
STARTCHAR $222
ENCODING 222
SWIDTH 1200 0
DWIDTH 16 0
BBX 16 32 0 -8
BITMAP
0000
0000
0000
0000
0000
0000
0000
0000
0F00
0F00
0F00
0F00
0FF0
0FF0
0F3C
0F3C
0F3C
0F3C
3FF0
3FF0
3C00
3C00
3C00
3C00
0000
0000
0000
0000
0000
0000
0000
0000
ENDCHAR
STARTCHAR $223
ENCODING 223
SWIDTH 1200 0
DWIDTH 16 0
BBX 16 32 0 -8
BITMAP
0000
0000
0000
0000
0000
0000
00FC
00FC
03CF
03CF
03FC
03FC
0FF0
0FF0
0F3C
0F3C
0F3C
0F3C
3CF0
3CF0
3CF0
3CF0
3FC0
3FC0
F000
F000
0000
0000
0000
0000
0000
0000
ENDCHAR
STARTCHAR $224
ENCODING 224
SWIDTH 1200 0
DWIDTH 16 0
BBX 16 32 0 -8
BITMAP
0000
0000
0FC0
0FC0
03C0
03C0
00F0
00F0
0000
0000
0FF0
0FF0
003C
003C
003C
003C
3FF0
3FF0
F0F0
F0F0
F0F0
F0F0
3FF0
3FF0
0000
0000
0000
0000
0000
0000
0000
0000
ENDCHAR
STARTCHAR $225
ENCODING 225
SWIDTH 1200 0
DWIDTH 16 0
BBX 16 32 0 -8
BITMAP
0000
0000
00FC
00FC
00F0
00F0
03C0
03C0
0000
0000
0FF0
0FF0
003C
003C
003C
003C
3FF0
3FF0
F0F0
F0F0
F0F0
F0F0
3FF0
3FF0
0000
0000
0000
0000
0000
0000
0000
0000
ENDCHAR
STARTCHAR $226
ENCODING 226
SWIDTH 1200 0
DWIDTH 16 0
BBX 16 32 0 -8
BITMAP
0000
0000
00F0
00F0
03FC
03FC
0F0F
0F0F
0000
0000
0FF0
0FF0
003C
003C
003C
003C
3FF0
3FF0
F0F0
F0F0
F0F0
F0F0
3FF0
3FF0
0000
0000
0000
0000
0000
0000
0000
0000
ENDCHAR
STARTCHAR $227
ENCODING 227
SWIDTH 1200 0
DWIDTH 16 0
BBX 16 32 0 -8
BITMAP
0000
0000
03CC
03CC
0CF0
0CF0
0000
0000
0000
0000
0FF0
0FF0
003C
003C
003C
003C
3FF0
3FF0
F0F0
F0F0
F0F0
F0F0
3FF0
3FF0
0000
0000
0000
0000
0000
0000
0000
0000
ENDCHAR
STARTCHAR $228
ENCODING 228
SWIDTH 1200 0
DWIDTH 16 0
BBX 16 32 0 -8
BITMAP
0000
0000
0F0F
0F0F
0F0F
0F0F
0000
0000
0000
0000
0FF0
0FF0
003C
003C
003C
003C
3FF0
3FF0
F0F0
F0F0
F0F0
F0F0
3FF0
3FF0
0000
0000
0000
0000
0000
0000
0000
0000
ENDCHAR
STARTCHAR $229
ENCODING 229
SWIDTH 1200 0
DWIDTH 16 0
BBX 16 32 0 -8
BITMAP
0000
0000
03F0
03F0
0F3C
0F3C
03F0
03F0
0000
0000
0FF0
0FF0
003C
003C
003C
003C
3FF0
3FF0
F0F0
F0F0
F0F0
F0F0
3FF0
3FF0
0000
0000
0000
0000
0000
0000
0000
0000
ENDCHAR
STARTCHAR $230
ENCODING 230
SWIDTH 1200 0
DWIDTH 16 0
BBX 16 32 0 -8
BITMAP
0000
0000
0000
0000
0000
0000
0000
0000
0000
0000
0C30
0C30
03CC
03CC
03CC
03CC
3FFC
3FFC
CF00
CF00
CF30
CF30
3CC0
3CC0
0000
0000
0000
0000
0000
0000
0000
0000
ENDCHAR
STARTCHAR $231
ENCODING 231
SWIDTH 1200 0
DWIDTH 16 0
BBX 16 32 0 -8
BITMAP
0000
0000
0000
0000
0000
0000
0000
0000
0000
0000
0FF0
0FF0
3C3C
3C3C
3C00
3C00
F000
F000
F000
F000
F0F0
F0F0
3FC0
3FC0
0F00
0F00
0F00
0F00
3C00
3C00
F000
F000
ENDCHAR
STARTCHAR $232
ENCODING 232
SWIDTH 1200 0
DWIDTH 16 0
BBX 16 32 0 -8
BITMAP
0000
0000
0FC0
0FC0
03C0
03C0
00F0
00F0
0000
0000
0FF0
0FF0
3C3C
3C3C
3C3C
3C3C
FFFC
FFFC
F000
F000
F0F0
F0F0
3FC0
3FC0
0000
0000
0000
0000
0000
0000
0000
0000
ENDCHAR
STARTCHAR $233
ENCODING 233
SWIDTH 1200 0
DWIDTH 16 0
BBX 16 32 0 -8
BITMAP
0000
0000
00FC
00FC
00F0
00F0
03C0
03C0
0000
0000
0FF0
0FF0
3C3C
3C3C
3C3C
3C3C
FFFC
FFFC
F000
F000
F0F0
F0F0
3FC0
3FC0
0000
0000
0000
0000
0000
0000
0000
0000
ENDCHAR
STARTCHAR $234
ENCODING 234
SWIDTH 1200 0
DWIDTH 16 0
BBX 16 32 0 -8
BITMAP
0000
0000
00F0
00F0
03FC
03FC
0F0F
0F0F
0000
0000
0FF0
0FF0
3C3C
3C3C
3C3C
3C3C
FFFC
FFFC
F000
F000
F0F0
F0F0
3FC0
3FC0
0000
0000
0000
0000
0000
0000
0000
0000
ENDCHAR
STARTCHAR $235
ENCODING 235
SWIDTH 1200 0
DWIDTH 16 0
BBX 16 32 0 -8
BITMAP
0000
0000
0F0F
0F0F
0F0F
0F0F
0000
0000
0000
0000
0FF0
0FF0
3C3C
3C3C
3C3C
3C3C
FFFC
FFFC
F000
F000
F0F0
F0F0
3FC0
3FC0
0000
0000
0000
0000
0000
0000
0000
0000
ENDCHAR
STARTCHAR $236
ENCODING 236
SWIDTH 1200 0
DWIDTH 16 0
BBX 16 32 0 -8
BITMAP
0000
0000
0FC0
0FC0
03C0
03C0
00F0
00F0
0000
0000
03F0
03F0
00F0
00F0
00F0
00F0
03C0
03C0
03C0
03C0
03C0
03C0
0FF0
0FF0
0000
0000
0000
0000
0000
0000
0000
0000
ENDCHAR
STARTCHAR $237
ENCODING 237
SWIDTH 1200 0
DWIDTH 16 0
BBX 16 32 0 -8
BITMAP
0000
0000
003F
003F
003C
003C
00F0
00F0
0000
0000
03F0
03F0
00F0
00F0
00F0
00F0
03C0
03C0
03C0
03C0
03C0
03C0
0FF0
0FF0
0000
0000
0000
0000
0000
0000
0000
0000
ENDCHAR
STARTCHAR $238
ENCODING 238
SWIDTH 1200 0
DWIDTH 16 0
BBX 16 32 0 -8
BITMAP
0000
0000
00F0
00F0
03FC
03FC
0F0F
0F0F
0000
0000
03F0
03F0
00F0
00F0
00F0
00F0
03C0
03C0
03C0
03C0
03C0
03C0
0FF0
0FF0
0000
0000
0000
0000
0000
0000
0000
0000
ENDCHAR
STARTCHAR $239
ENCODING 239
SWIDTH 1200 0
DWIDTH 16 0
BBX 16 32 0 -8
BITMAP
0000
0000
0F0F
0F0F
0F0F
0F0F
0000
0000
0000
0000
03F0
03F0
00F0
00F0
00F0
00F0
03C0
03C0
03C0
03C0
03C0
03C0
0FF0
0FF0
0000
0000
0000
0000
0000
0000
0000
0000
ENDCHAR
STARTCHAR $240
ENCODING 240
SWIDTH 1200 0
DWIDTH 16 0
BBX 16 32 0 -8
BITMAP
0000
0000
03CC
03CC
00F0
00F0
033C
033C
003C
003C
003C
003C
0FFC
0FFC
3C3C
3C3C
3C3C
3C3C
F0F0
F0F0
F0F0
F0F0
3FC0
3FC0
0000
0000
0000
0000
0000
0000
0000
0000
ENDCHAR
STARTCHAR $241
ENCODING 241
SWIDTH 1200 0
DWIDTH 16 0
BBX 16 32 0 -8
BITMAP
0000
0000
03CC
03CC
0CF0
0CF0
0000
0000
0000
0000
3FF0
3FF0
3C3C
3C3C
3C3C
3C3C
3C3C
3C3C
F0F0
F0F0
F0F0
F0F0
F0F0
F0F0
0000
0000
0000
0000
0000
0000
0000
0000
ENDCHAR
STARTCHAR $242
ENCODING 242
SWIDTH 1200 0
DWIDTH 16 0
BBX 16 32 0 -8
BITMAP
0000
0000
0FC0
0FC0
03C0
03C0
00F0
00F0
0000
0000
0FF0
0FF0
3C3C
3C3C
3C3C
3C3C
F03C
F03C
F0F0
F0F0
F0F0
F0F0
3FC0
3FC0
0000
0000
0000
0000
0000
0000
0000
0000
ENDCHAR
STARTCHAR $243
ENCODING 243
SWIDTH 1200 0
DWIDTH 16 0
BBX 16 32 0 -8
BITMAP
0000
0000
00FC
00FC
00F0
00F0
03C0
03C0
0000
0000
0FF0
0FF0
3C3C
3C3C
3C3C
3C3C
F03C
F03C
F0F0
F0F0
F0F0
F0F0
3FC0
3FC0
0000
0000
0000
0000
0000
0000
0000
0000
ENDCHAR
STARTCHAR $244
ENCODING 244
SWIDTH 1200 0
DWIDTH 16 0
BBX 16 32 0 -8
BITMAP
0000
0000
00F0
00F0
03FC
03FC
0F0F
0F0F
0000
0000
0FF0
0FF0
3C3C
3C3C
3C3C
3C3C
F03C
F03C
F0F0
F0F0
F0F0
F0F0
3FC0
3FC0
0000
0000
0000
0000
0000
0000
0000
0000
ENDCHAR
STARTCHAR $245
ENCODING 245
SWIDTH 1200 0
DWIDTH 16 0
BBX 16 32 0 -8
BITMAP
0000
0000
03CC
03CC
0CF0
0CF0
0000
0000
0000
0000
0FF0
0FF0
3C3C
3C3C
3C3C
3C3C
F03C
F03C
F0F0
F0F0
F0F0
F0F0
3FC0
3FC0
0000
0000
0000
0000
0000
0000
0000
0000
ENDCHAR
STARTCHAR $246
ENCODING 246
SWIDTH 1200 0
DWIDTH 16 0
BBX 16 32 0 -8
BITMAP
0000
0000
0F0F
0F0F
0F0F
0F0F
0000
0000
0000
0000
0FF0
0FF0
3C3C
3C3C
3C3C
3C3C
F03C
F03C
F0F0
F0F0
F0F0
F0F0
3FC0
3FC0
0000
0000
0000
0000
0000
0000
0000
0000
ENDCHAR
STARTCHAR $247
ENCODING 247
SWIDTH 1200 0
DWIDTH 16 0
BBX 16 32 0 -8
BITMAP
0000
0000
0000
0000
0000
0000
0000
0000
0000
0000
03C0
03C0
0000
0000
FFFC
FFFC
0000
0000
0F00
0F00
0000
0000
0000
0000
0000
0000
0000
0000
0000
0000
0000
0000
ENDCHAR
STARTCHAR $248
ENCODING 248
SWIDTH 1200 0
DWIDTH 16 0
BBX 16 32 0 -8
BITMAP
0000
0000
0000
0000
0000
0000
0000
0000
000C
000C
0FF0
0FF0
3C3C
3C3C
3CFC
3CFC
F33C
F33C
FCF0
FCF0
F0F0
F0F0
3FC0
3FC0
C000
C000
0000
0000
0000
0000
0000
0000
ENDCHAR
STARTCHAR $249
ENCODING 249
SWIDTH 1200 0
DWIDTH 16 0
BBX 16 32 0 -8
BITMAP
0000
0000
0FC0
0FC0
03C0
03C0
00F0
00F0
0000
0000
3C3C
3C3C
3C3C
3C3C
3C3C
3C3C
F0F0
F0F0
F0F0
F0F0
F0F0
F0F0
3FF0
3FF0
0000
0000
0000
0000
0000
0000
0000
0000
ENDCHAR
STARTCHAR $250
ENCODING 250
SWIDTH 1200 0
DWIDTH 16 0
BBX 16 32 0 -8
BITMAP
0000
0000
00FC
00FC
00F0
00F0
03C0
03C0
0000
0000
3C3C
3C3C
3C3C
3C3C
3C3C
3C3C
F0F0
F0F0
F0F0
F0F0
F0F0
F0F0
3FF0
3FF0
0000
0000
0000
0000
0000
0000
0000
0000
ENDCHAR
STARTCHAR $251
ENCODING 251
SWIDTH 1200 0
DWIDTH 16 0
BBX 16 32 0 -8
BITMAP
0000
0000
00F0
00F0
03FC
03FC
0F0F
0F0F
0000
0000
3C3C
3C3C
3C3C
3C3C
3C3C
3C3C
F0F0
F0F0
F0F0
F0F0
F0F0
F0F0
3FF0
3FF0
0000
0000
0000
0000
0000
0000
0000
0000
ENDCHAR
STARTCHAR $252
ENCODING 252
SWIDTH 1200 0
DWIDTH 16 0
BBX 16 32 0 -8
BITMAP
0000
0000
0F0F
0F0F
0F0F
0F0F
0000
0000
0000
0000
3C3C
3C3C
3C3C
3C3C
3C3C
3C3C
F0F0
F0F0
F0F0
F0F0
F0F0
F0F0
3FF0
3FF0
0000
0000
0000
0000
0000
0000
0000
0000
ENDCHAR
STARTCHAR $253
ENCODING 253
SWIDTH 1200 0
DWIDTH 16 0
BBX 16 32 0 -8
BITMAP
0000
0000
00FC
00FC
00F0
00F0
03C0
03C0
0000
0000
3C3C
3C3C
3C3C
3C3C
3C3C
3C3C
F0F0
F0F0
F0F0
F0F0
F0F0
F0F0
3FF0
3FF0
03C0
03C0
03C0
03C0
03C0
03C0
FF00
FF00
ENDCHAR
STARTCHAR $254
ENCODING 254
SWIDTH 1200 0
DWIDTH 16 0
BBX 16 32 0 -8
BITMAP
0000
0000
0000
0000
0F00
0F00
0F00
0F00
0F00
0F00
0FF0
0FF0
3C3C
3C3C
3C3C
3C3C
3C3C
3C3C
3CF0
3CF0
F0F0
F0F0
FFC0
FFC0
F000
F000
F000
F000
F000
F000
0000
0000
ENDCHAR
STARTCHAR $255
ENCODING 255
SWIDTH 1200 0
DWIDTH 16 0
BBX 16 32 0 -8
BITMAP
0000
0000
0000
0000
0F0F
0F0F
0F0F
0F0F
0000
0000
3C3C
3C3C
3C3C
3C3C
3C3C
3C3C
F0F0
F0F0
F0F0
F0F0
F0F0
F0F0
3FF0
3FF0
03C0
03C0
03C0
03C0
03C0
03C0
FF00
FF00
ENDCHAR
STARTCHAR $104
ENCODING 955
SWIDTH 1200 0
DWIDTH 16 0
BBX 16 32 0 -8
BITMAP
0000
0000
0000
0000
0F00
0F00
03C0
03C0
00C0
00C0
00F0
00F0
003C
003C
03FC
03FC
0F3C
0F3C
3CF0
3CF0
F0F0
F0F0
C0FC
C0FC
0000
0000
0000
0000
0000
0000
0000
0000
ENDCHAR
STARTCHAR char960
ENCODING 960
SWIDTH 1200 0
DWIDTH 16 0
BBX 16 32 0 -8
BITMAP
0000
0000
0000
0000
0000
0000
0000
0000
0000
0000
3FFF
3FFF
3FFF
3FFF
0F3C
0F3C
3CF0
3CF0
30F0
30F0
F0FC
F0FC
C0FC
C0FC
0000
0000
0000
0000
0000
0000
0000
0000
ENDCHAR
STARTCHAR char9642
ENCODING 9642
SWIDTH 1200 0
DWIDTH 16 0
BBX 16 32 0 -8
BITMAP
0000
0000
0000
0000
0000
0000
0000
0000
0000
0000
3FF0
3FF0
3FF0
3FF0
3FF0
3FF0
3FF0
3FF0
3FF0
3FF0
0000
0000
0000
0000
0000
0000
0000
0000
0000
0000
0000
0000
ENDCHAR
STARTCHAR char9656
ENCODING 9652
SWIDTH 1200 0
DWIDTH 16 0
BBX 16 32 0 -8
BITMAP
0000
0000
0000
0000
0000
0000
0000
0000
0000
0000
0300
0300
0300
0300
0FC0
0FC0
0FC0
0FC0
3FF0
3FF0
3FF0
3FF0
FFFC
FFFC
0000
0000
0000
0000
0000
0000
0000
0000
ENDCHAR
STARTCHAR char9656
ENCODING 9656
SWIDTH 1200 0
DWIDTH 16 0
BBX 16 32 0 -8
BITMAP
0000
0000
0000
0000
0000
0000
3000
3000
3C00
3C00
3F00
3F00
3FC0
3FC0
3FF0
3FF0
3FC0
3FC0
3F00
3F00
3C00
3C00
3000
3000
0000
0000
0000
0000
0000
0000
0000
0000
ENDCHAR
STARTCHAR char9656
ENCODING 9662
SWIDTH 1200 0
DWIDTH 16 0
BBX 16 32 0 -8
BITMAP
0000
0000
0000
0000
0000
0000
0000
0000
0000
0000
FFFC
FFFC
3FF0
3FF0
3FF0
3FF0
0FC0
0FC0
0FC0
0FC0
0300
0300
0300
0300
0000
0000
0000
0000
0000
0000
0000
0000
ENDCHAR
STARTCHAR char9656
ENCODING 9666
SWIDTH 1200 0
DWIDTH 16 0
BBX 16 32 0 -8
BITMAP
0000
0000
0000
0000
0000
0000
0030
0030
00F0
00F0
03F0
03F0
0FF0
0FF0
3FF0
3FF0
0FF0
0FF0
03F0
03F0
00F0
00F0
0030
0030
0000
0000
0000
0000
0000
0000
0000
0000
ENDCHAR
STARTCHAR char9670
ENCODING 9670
SWIDTH 1200 0
DWIDTH 16 0
BBX 16 32 0 -8
BITMAP
0000
0000
0000
0000
0000
0000
0000
0000
0300
0300
0FC0
0FC0
3FF0
3FF0
FFFC
FFFC
3FF0
3FF0
0FC0
0FC0
0300
0300
0000
0000
0000
0000
0000
0000
0000
0000
0000
0000
ENDCHAR
STARTCHAR char10003
ENCODING 10003
SWIDTH 1200 0
DWIDTH 16 0
BBX 16 32 0 -8
BITMAP
0000
0000
0000
0000
0003
0003
000C
000C
000C
000C
0030
0030
0030
0030
00C0
00C0
C0C0
C0C0
C300
C300
3300
3300
0C00
0C00
0000
0000
0000
0000
0000
0000
0000
0000
ENDCHAR
STARTCHAR char10007
ENCODING 10007
SWIDTH 1200 0
DWIDTH 16 0
BBX 16 32 0 -8
BITMAP
0000
0000
000C
000C
0C0C
0C0C
0C30
0C30
03C0
03C0
03C0
03C0
0330
0330
0C0C
0C0C
0C00
0C00
3000
3000
C000
C000
C000
C000
0000
0000
0000
0000
0000
0000
0000
0000
ENDCHAR
STARTCHAR uniE0A0
ENCODING 57504
SWIDTH 1200 0
DWIDTH 16 0
BBX 16 32 0 -8
BITMAP
F000
F000
F000
F000
F000
F000
F030
F030
F0FC
F0FC
F3FF
F3FF
F030
F030
F0F0
F0F0
C3F0
C3F0
0FC0
0FC0
3F00
3F00
FC00
FC00
FC00
FC00
FC00
FC00
FC00
FC00
FC00
FC00
ENDCHAR
STARTCHAR uniE0A1
ENCODING 57505
SWIDTH 1200 0
DWIDTH 16 0
BBX 16 32 0 -8
BITMAP
F000
F000
F000
F000
F000
F000
F000
F000
F000
F000
FFC0
FFC0
FFC0
FFC0
0000
0000
030F
030F
03CF
03CF
03CF
03CF
03FF
03FF
03FF
03FF
03CF
03CF
03C3
03C3
0000
0000
ENDCHAR
STARTCHAR uniE0A2
ENCODING 57506
SWIDTH 1200 0
DWIDTH 16 0
BBX 16 32 0 -8
BITMAP
0000
0000
0000
0000
0FF0
0FF0
3C3C
3C3C
300C
300C
300C
300C
3FFC
3FFC
FC3F
FC3F
F00F
F00F
FC3F
FC3F
FFFF
FFFF
3FFC
3FFC
0FF0
0FF0
0000
0000
0000
0000
0000
0000
ENDCHAR
STARTCHAR uniE0B0
ENCODING 57520
SWIDTH 1200 0
DWIDTH 16 0
BBX 16 32 0 -8
BITMAP
C000
C000
F000
F000
FC00
FC00
FF00
FF00
FFC0
FFC0
FFF0
FFF0
FFFC
FFFC
FFFF
FFFF
FFFF
FFFF
FFFC
FFFC
FFF0
FFF0
FFC0
FFC0
FF00
FF00
FC00
FC00
F000
F000
C000
C000
ENDCHAR
STARTCHAR uniE0B1
ENCODING 57521
SWIDTH 1200 0
DWIDTH 16 0
BBX 16 32 0 -8
BITMAP
C000
C000
F000
F000
3C00
3C00
0F00
0F00
03C0
03C0
00F0
00F0
003C
003C
000F
000F
000F
000F
003C
003C
00F0
00F0
03C0
03C0
0F00
0F00
3C00
3C00
F000
F000
C000
C000
ENDCHAR
STARTCHAR uniE0B2
ENCODING 57522
SWIDTH 1200 0
DWIDTH 16 0
BBX 16 32 0 -8
BITMAP
0003
0003
000F
000F
003F
003F
00FF
00FF
03FF
03FF
0FFF
0FFF
3FFF
3FFF
FFFF
FFFF
FFFF
FFFF
3FFF
3FFF
0FFF
0FFF
03FF
03FF
00FF
00FF
003F
003F
000F
000F
0003
0003
ENDCHAR
STARTCHAR uniE0B3
ENCODING 57523
SWIDTH 1200 0
DWIDTH 16 0
BBX 16 32 0 -8
BITMAP
0003
0003
000F
000F
003C
003C
00F0
00F0
03C0
03C0
0F00
0F00
3C00
3C00
F000
F000
F000
F000
3C00
3C00
0F00
0F00
03C0
03C0
00F0
00F0
003C
003C
000F
000F
0003
0003
ENDCHAR
ENDFONT
